<svg width="20" height="20" viewBox="0 0 20 20" fill="none" xmlns="http://www.w3.org/2000/svg">
<path d="M10 0.25C15.3841 0.25 19.75 4.61585 19.75 10C19.75 15.3842 15.3841 19.75 10 19.75C4.6158 19.75 0.25 15.3869 0.25 10C0.25 4.61312 4.6158 0.25 10 0.25Z" fill="#393939" stroke="#B0B0B0" stroke-width="0.5"/>
<path d="M14.9577 14.1093L11.5193 5.65067C11.3254 5.21333 11.0371 5 10.6571 5H10.3531C9.97306 5 9.68478 5.21333 9.49085 5.65067L7.99439 9.336H6.86223C6.52415 9.33867 6.24897 9.616 6.24635 9.96267V9.97067C6.24897 10.3147 6.52415 10.5947 6.86223 10.5973H7.47024L6.04193 14.1093C6.01572 14.1867 6 14.2667 6 14.3493C6 14.5467 6.06028 14.7013 6.16773 14.8213C6.27518 14.9413 6.4298 15 6.62374 15C6.75216 14.9973 6.87533 14.9573 6.97754 14.88C7.08761 14.8027 7.16362 14.6907 7.22389 14.5627L8.79635 10.5947H9.88658C10.2247 10.592 10.4998 10.3147 10.5025 9.968V9.952C10.4998 9.608 10.2247 9.328 9.88658 9.32533H9.30477L10.5051 6.28267L13.7758 14.56C13.8361 14.688 13.9121 14.8 14.0221 14.8773C14.1243 14.9547 14.2501 14.9947 14.3759 14.9973C14.5699 14.9973 14.7219 14.9387 14.8319 14.8187C14.942 14.6987 14.9997 14.544 14.9997 14.3467C15.0023 14.2667 14.9892 14.184 14.9577 14.1093Z" fill="white"/>
</svg>
