<svg width="20" height="20" viewBox="0 0 20 20" fill="none" xmlns="http://www.w3.org/2000/svg">
<path d="M10 0.25C15.3841 0.25 19.75 4.61585 19.75 10C19.75 15.3842 15.3841 19.75 10 19.75C4.6158 19.75 0.25 15.3869 0.25 10C0.25 4.61312 4.6158 0.25 10 0.25Z" fill="#393939" stroke="#B0B0B0" stroke-width="0.5"/>
<path fill-rule="evenodd" clip-rule="evenodd" d="M5.51266 13.3523C5.19464 13.1695 5 12.8448 5 12.4951V10.5428C5 10.311 5.20102 10.1232 5.44778 10.1242C5.52648 10.1242 5.60413 10.1442 5.6722 10.1811L10.3616 12.7499C10.636 12.8997 10.8051 13.1755 10.8051 13.4742V15.4964C10.8062 15.7742 10.5669 16 10.2712 16C10.1723 16 10.0745 15.974 9.99043 15.9261L5.51266 13.3523ZM12.5027 9.64661C12.7771 9.79648 12.9451 10.0732 12.9462 10.371V14.4753C12.9462 14.5962 12.877 14.7081 12.7643 14.7671L11.7379 15.3096C11.7252 15.3166 11.7113 15.3216 11.6964 15.3256V13.0466C11.6964 12.7519 11.5316 12.4781 11.2614 12.3262L7.14316 10.0123V7.43956C7.14316 7.20776 7.34418 7.01993 7.59094 7.02093C7.66964 7.02093 7.74729 7.04091 7.81536 7.07788L12.5027 9.64661ZM14.5554 6.61529C14.8309 6.76515 15 7.04191 15 7.34065V13.3354C14.9989 13.4582 14.9266 13.5711 14.8117 13.6301L13.8385 14.1237V9.95034C13.8385 9.6556 13.6737 9.38284 13.4057 9.23098L9.19592 6.85907V4.41923C9.19592 4.34529 9.21719 4.27236 9.25548 4.20841C9.37992 4.00859 9.65327 3.94065 9.86599 4.05655L14.5554 6.61529Z" fill="white"/>
</svg>
