<svg width="20" height="20" viewBox="0 0 20 20" fill="none" xmlns="http://www.w3.org/2000/svg">
<path d="M10 0.25C15.3841 0.25 19.75 4.61585 19.75 10C19.75 15.3842 15.3841 19.75 10 19.75C4.6158 19.75 0.25 15.3869 0.25 10C0.25 4.61312 4.6158 0.25 10 0.25Z" fill="#393939" stroke="#B0B0B0" stroke-width="0.5"/>
<path d="M10.1433 10.6364H13.6309C13.7052 10.6364 13.7403 10.6364 13.7457 10.5409C13.7742 10.1933 13.7742 9.84366 13.7457 9.49563C13.7457 9.42805 13.7114 9.40013 13.6366 9.40013H6.6958C6.60989 9.40013 6.58676 9.42805 6.58676 9.50696V10.5073C6.58676 10.6364 6.58676 10.6364 6.7243 10.6364H10.1433V10.6364ZM13.3562 8.231C13.3661 8.2055 13.3661 8.17758 13.3562 8.15249C13.298 8.02825 13.229 7.90968 13.1489 7.79839C13.0283 7.60819 12.8862 7.43296 12.7243 7.27554C12.6479 7.18044 12.5595 7.09505 12.4604 7.02261C11.9639 6.60862 11.3737 6.31563 10.7393 6.16832C10.4192 6.09791 10.0921 6.06432 9.76414 6.06715H6.68382C6.59791 6.06715 6.58635 6.10074 6.58635 6.17399V8.16908C6.58635 8.25325 6.58635 8.27592 6.69538 8.27592H13.3149C13.3149 8.27592 13.3723 8.26458 13.3839 8.231H13.3558H13.3562ZM13.3562 11.8056C13.2587 11.795 13.1604 11.795 13.063 11.8056H6.70158C6.61567 11.8056 6.58676 11.8056 6.58676 11.9181V13.8686C6.58676 13.9585 6.58676 13.9811 6.70158 13.9811H9.63858C9.77901 13.9917 9.91944 13.982 10.057 13.9532C10.4832 13.9233 10.9024 13.8326 11.3022 13.6833C11.4476 13.6339 11.588 13.5696 11.7206 13.4923H11.7607C12.4492 13.1414 13.0084 12.5902 13.3612 11.9136C13.3612 11.9136 13.4012 11.8286 13.3562 11.8064V11.8056ZM5.43401 14.9925V14.9589V13.6493V13.2054V11.8845C5.43401 11.8112 5.43401 11.8003 5.34232 11.8003H4.09747C4.0285 11.8003 4 11.8003 4 11.7105V10.6425H5.33076C5.4051 10.6425 5.43401 10.6425 5.43401 10.547V9.49037C5.43401 9.42279 5.43401 9.4062 5.34232 9.4062H4.09747C4.0285 9.4062 4 9.4062 4 9.31636V8.32731C4 8.26539 4 8.2488 4.09169 8.2488H5.32498C5.41088 8.2488 5.43401 8.2488 5.43401 8.14197V5.1125C5.43401 5.02266 5.43401 5 5.54883 5H9.85088C10.1631 5.01214 10.4733 5.04573 10.7802 5.10117C11.4125 5.2157 12.0201 5.43706 12.5756 5.75312C12.944 5.96558 13.2831 6.22215 13.585 6.51756C13.8122 6.74864 14.017 6.99873 14.1988 7.26502C14.3793 7.53494 14.5292 7.82348 14.6469 8.12497C14.6613 8.20348 14.7382 8.25649 14.8183 8.24314H15.8451C15.9768 8.24314 15.9768 8.24314 15.9826 8.36697V9.28884C15.9826 9.37868 15.9483 9.40134 15.8562 9.40134H15.0645C14.9843 9.40134 14.9612 9.40134 14.967 9.50251C14.9984 9.84487 14.9984 10.1885 14.967 10.5308C14.967 10.6263 14.967 10.6376 15.0764 10.6376H15.9822C16.0223 10.6882 15.9822 10.7388 15.9822 10.7898C15.988 10.855 15.988 10.9209 15.9822 10.9861V11.6664C15.9822 11.7619 15.9537 11.7902 15.8674 11.7902H14.7832C14.7076 11.776 14.6341 11.8234 14.6167 11.897C14.3586 12.5546 13.9456 13.1443 13.412 13.6169C13.217 13.7889 13.0122 13.9508 12.7982 14.1001C12.5686 14.2296 12.3451 14.3644 12.1097 14.4712C11.6764 14.6622 11.2221 14.8031 10.7558 14.8925C10.313 14.9702 9.86409 15.0054 9.41349 14.9993H5.43236V14.9937L5.43401 14.9925Z" fill="#FEFEFD"/>
</svg>
