<svg width="20" height="20" viewBox="0 0 20 20" fill="none" xmlns="http://www.w3.org/2000/svg">
<path d="M10 0.25C15.3841 0.25 19.75 4.61585 19.75 10C19.75 15.3842 15.3841 19.75 10 19.75C4.6158 19.75 0.25 15.3869 0.25 10C0.25 4.61312 4.6158 0.25 10 0.25Z" fill="#393939" stroke="#B0B0B0" stroke-width="0.5"/>
<path d="M5.4011 8.5898C5.53818 8.88206 5.87602 9.4579 5.87602 9.4579L9.78244 3L5.97078 5.66215C5.67274 5.88497 5.52408 6.06618 5.42822 6.25861C4.90918 7.30502 5.26582 8.29718 5.4011 8.5898Z" fill="white"/>
<path d="M4.03383 10.4822C4.13438 11.7503 4.77822 12.8908 5.68538 13.5451L9.77772 16.3961C9.77772 16.3961 7.22046 12.7092 5.06144 9.04042C4.84363 8.65258 4.69665 8.22904 4.62739 7.78965C4.59881 7.59052 4.60039 7.38823 4.63209 7.18958C4.57603 7.29338 4.47439 7.50788 4.47439 7.50788C4.27943 7.94554 4.08049 8.44542 4.03202 8.92215C3.99983 9.25817 3.97921 9.65858 4.03383 10.4822V10.4822Z" fill="white"/>
<path d="M14.5978 10.8066C14.4607 10.5144 14.1229 9.93854 14.1229 9.93854L10.2165 16.3964L14.0285 13.7346C14.3265 13.5118 14.4752 13.3306 14.571 13.1382C15.0915 12.0914 14.7331 11.0993 14.5978 10.8066V10.8066Z" fill="white"/>
<path d="M15.9665 8.91419C15.866 7.64605 15.2221 6.5056 14.315 5.85127L10.2226 3.00031C10.2226 3.00031 12.7799 6.68717 14.9389 10.3563C15.1567 10.7442 15.3037 11.1677 15.373 11.6071C15.4015 11.8062 15.4 12.0085 15.3683 12.2072C15.4243 12.1034 15.526 11.8889 15.526 11.8889C15.7209 11.4512 15.9199 10.9513 15.9683 10.4746C15.9991 10.1382 16.0215 9.7378 15.9665 8.91419V8.91419Z" fill="white"/>
</svg>
