<svg width="20" height="20" viewBox="0 0 20 20" fill="none" xmlns="http://www.w3.org/2000/svg">
<path d="M19.75 10C19.75 15.3847 15.3847 19.75 10 19.75C4.61522 19.75 0.25 15.3847 0.25 10C0.25 4.61522 4.61522 0.25 10 0.25C15.3847 0.25 19.75 4.61522 19.75 10Z" fill="#393939" stroke="#B0B0B0" stroke-width="0.5"/>
<path d="M12.4722 9.05592L12.4697 14.4034L12.4788 17.0793L14.9613 15.5893L14.9563 7.56592L12.4722 9.05592Z" fill="#B0B0B0"/>
<path d="M14.9558 7.56582L12.4717 6.07666L10 7.56582L12.485 9.05582L14.9558 7.56582Z" fill="white"/>
<path d="M7.52508 5.89967L7.51758 9.05884L10.0001 7.568L9.99508 4.40967L7.52508 5.89967Z" fill="#B0B0B0"/>
<path d="M9.99489 4.41006L7.51073 2.9209L5.03906 4.41006L7.52489 5.90006L9.99489 4.41006Z" fill="white"/>
<path d="M9.99758 7.57239L9.98925 7.56738L7.51758 9.05655L9.99925 10.5449L9.99758 7.57239Z" fill="white"/>
<path d="M9.99842 12.8415C9.99842 11.949 9.52925 11.1215 8.76342 10.6623C8.21508 10.334 7.51758 10.729 7.51758 11.3848V15.0115L9.99925 13.5223L9.99842 12.8415Z" fill="#B0B0B0"/>
<path d="M9.99925 13.5225L7.51758 15.0125L9.99925 16.5008V13.5225Z" fill="white"/>
</svg>
