<svg width="20" height="20" viewBox="0 0 20 20" fill="none" xmlns="http://www.w3.org/2000/svg">
<path d="M10 0.25C15.3841 0.25 19.75 4.61585 19.75 10C19.75 15.3842 15.3841 19.75 10 19.75C4.6158 19.75 0.25 15.3869 0.25 10C0.25 4.61312 4.6158 0.25 10 0.25Z" fill="#393939" stroke="#B0B0B0" stroke-width="0.5"/>
<path d="M10.0254 11.8125L10.0987 11.8856L13.4545 9.90205L10.0987 4.33398L10.0254 4.58312V11.8125Z" fill="#CDCDCD"/>
<path d="M10.0989 11.8857V4.33398L6.74316 9.90205L10.0989 11.8857Z" fill="#9B9B9B"/>
<path d="M10.0576 15.1473L10.0989 15.2679L13.4567 10.5391L10.0989 12.5217L10.0576 12.572L10.0576 15.1473Z" fill="#CDCDCD"/>
<path d="M6.74316 10.5391L10.0989 15.2679V12.5217L6.74316 10.5391Z" fill="#9B9B9B"/>
<path d="M10.0986 8.37695V11.8858L13.4544 9.90224L10.0986 8.37695Z" fill="#5F5F5F"/>
<path d="M10.0989 8.37695L6.74316 9.90222L10.0989 11.8858V8.37695Z" fill="#7E7E7E"/>
</svg>
