<svg width="20" height="20" viewBox="0 0 20 20" fill="none" xmlns="http://www.w3.org/2000/svg">
<path d="M10 0.25C15.3841 0.25 19.75 4.61585 19.75 10C19.75 15.3842 15.3841 19.75 10 19.75C4.6158 19.75 0.25 15.3869 0.25 10C0.25 4.61312 4.6158 0.25 10 0.25Z" fill="#393939" stroke="#B0B0B0" stroke-width="0.5"/>
<path d="M9.27455 2.03066C6.46455 2.30385 4.04482 3.98205 2.80708 6.51886C1.31287 9.57418 1.93174 13.2428 4.34589 15.657C5.4331 16.7497 6.87713 17.5303 8.37134 17.8369C11.5772 18.5004 14.8555 17.1456 16.6731 14.4136C19.5723 10.0481 17.5094 4.08241 12.5362 2.42651C11.4713 2.07526 10.306 1.9303 9.27455 2.03066ZM10.7688 2.36518C12.1124 2.51014 13.2219 2.906 14.2924 3.62523C15.374 4.3556 16.3163 5.42608 16.9296 6.63595C17.476 7.71757 17.7826 9.46825 17.6377 10.7004C17.5708 11.2803 17.331 12.3396 17.2474 12.4232C17.2195 12.4511 16.4278 12.1667 15.4242 11.7709C14.4485 11.3862 11.2817 10.1373 8.38249 8.99992C5.48328 7.85696 3.10258 6.91472 3.09143 6.90356C3.05797 6.87011 3.26984 6.43523 3.52073 6.01708C4.10615 5.0358 5.1376 4.00435 6.12445 3.41336C6.91616 2.93388 8.01451 2.5436 8.88427 2.42651C9.8544 2.29828 10.0495 2.2927 10.7688 2.36518ZM8.54975 13.2874C8.56648 14.33 8.59993 15.0381 8.63338 15.0715C8.66683 15.0994 9.06826 15.289 9.52545 15.4841L10.3618 15.8409L10.3785 16.3595C10.3896 16.8166 10.3841 16.8724 10.306 16.8389C9.79307 16.6438 8.04239 15.8688 7.91973 15.7852C7.66326 15.6068 7.60193 15.4228 7.60193 14.7872V14.2073L7.23953 14.0289C6.95518 13.8895 6.85483 13.8059 6.76562 13.6331C6.64854 13.4045 6.60393 12.7912 6.70429 12.7912C6.73217 12.7912 6.92173 12.8637 7.12802 12.9585C7.33431 13.0532 7.52388 13.1257 7.55175 13.1257C7.57963 13.1257 7.60193 12.9139 7.60193 12.6574V12.1891L6.95518 11.927C6.60393 11.7765 6.29171 11.6148 6.25826 11.559C6.23038 11.5033 6.20808 11.258 6.20808 11.0182V10.5722L7.36776 11.0684L8.52187 11.5646L8.54975 13.2874ZM10.044 10.8454C10.1053 10.8844 10.2112 11.0071 10.2726 11.1241C10.3841 11.3193 10.3896 11.4085 10.3896 13.0923C10.3896 14.0624 10.3673 14.8541 10.3395 14.8541C10.2502 14.8541 9.63695 14.5642 9.54217 14.4805C9.44739 14.3969 9.44182 14.2296 9.44182 12.479V10.5666L9.68713 10.667C9.82094 10.7283 9.98263 10.8063 10.044 10.8454Z" fill="white"/>
<path d="M9.17418 4.84638C8.7393 5.56003 8.38248 6.16775 8.38248 6.19563C8.38248 6.22351 8.73373 6.4521 9.16861 6.70857L9.95474 7.17133L10.6015 6.7922C10.9583 6.58591 11.3207 6.37404 11.4043 6.32944C11.4936 6.27926 11.5605 6.22908 11.5605 6.21236C11.5605 6.19563 11.1981 5.58791 10.7632 4.86311L9.96032 3.54174L9.17418 4.84638Z" fill="white"/>
<path d="M12.4971 6.41844C12.4246 6.43516 12.3967 6.50207 12.3967 6.63588V6.82544H12.8316C13.3501 6.82544 13.5118 6.90907 13.5118 7.17669C13.5118 7.42201 13.378 7.60042 12.7926 8.15796C12.3298 8.59842 12.2852 8.65417 12.2852 8.84374V9.0556H13.2052H14.1251V8.83259V8.60957H13.5564H12.9933L13.4114 8.17469C13.9188 7.65618 14.0192 7.46661 14.0192 7.07633C14.0192 6.51322 13.8296 6.37383 13.0825 6.38498C12.8149 6.39056 12.5473 6.40171 12.4971 6.41844Z" fill="white"/>
<path d="M9.08504 7.81231C9.47532 8.3587 9.83214 8.84934 9.8879 8.90509C9.9771 8.99987 10.0161 8.95527 10.7075 7.98515C11.5717 6.76971 11.5605 6.78643 11.3877 6.89794C11.0476 7.10981 9.99383 7.71753 9.96595 7.71753C9.94922 7.71753 9.60355 7.52796 9.20212 7.2938C8.79512 7.05963 8.44386 6.85334 8.42156 6.84219C8.39926 6.82546 8.69476 7.26592 9.08504 7.81231Z" fill="white"/>
<path d="M14.4931 7.17112C14.521 7.21014 14.6604 7.41086 14.8053 7.62272C14.9503 7.82901 15.073 8.02973 15.073 8.06876C15.073 8.10778 14.9336 8.34195 14.7663 8.59842L14.4597 9.0556H14.7217C14.9837 9.05003 14.9893 9.05003 15.1789 8.74338L15.3629 8.43116L15.5859 8.74338C15.7978 9.04445 15.8145 9.0556 16.0598 9.0556H16.3107L15.9929 8.604C15.8201 8.35868 15.6918 8.11893 15.7085 8.07433C15.7253 8.02973 15.8647 7.81229 16.0208 7.57812C16.1713 7.34953 16.2995 7.14881 16.2995 7.13209C16.2995 7.11536 16.188 7.10421 16.0542 7.10421C15.8201 7.10421 15.8033 7.11536 15.6249 7.41086C15.5246 7.57812 15.4242 7.71751 15.4019 7.71751C15.3852 7.71751 15.2737 7.57812 15.1622 7.41086C14.967 7.11536 14.9503 7.10421 14.705 7.10421C14.521 7.10421 14.4652 7.12094 14.4931 7.17112Z" fill="white"/>
</svg>
