<svg width="20" height="20" viewBox="0 0 20 20" fill="none" xmlns="http://www.w3.org/2000/svg">
<path d="M19.75 10C19.75 15.3847 15.3847 19.75 10 19.75C4.61522 19.75 0.25 15.3847 0.25 10C0.25 4.61522 4.61522 0.25 10 0.25C15.3847 0.25 19.75 4.61522 19.75 10Z" fill="#393939" stroke="#B0B0B0" stroke-width="0.5"/>
<path d="M15.32 8.08707C15.1471 7.50349 14.8511 6.96382 14.4517 6.50447C14.0341 6.03943 13.5147 5.67732 12.9339 5.44643C12.235 5.15241 11.4845 5.00064 10.7263 5H4.40039V5.1317L4.66378 5.22991C4.86414 5.31143 5.03527 5.45146 5.15485 5.6317C5.27539 5.81251 5.33566 6.01117 5.33566 6.50671V13.7835C5.33516 13.9925 5.27305 14.1967 5.15709 14.3705C5.0369 14.5503 4.86595 14.6901 4.66602 14.7724L4.40262 14.8705V15H7.71513V14.8705L7.45396 14.7724C7.253 14.6909 7.08114 14.5509 6.96066 14.3705C6.8405 14.198 6.77445 13.9937 6.77093 13.7835V10.3728H9.13923C9.3523 10.3715 9.5608 10.4344 9.73749 10.5536C9.91724 10.6737 10.0571 10.8447 10.1392 11.0447V11.0625H10.2709V8.96206H10.1392V8.97993C10.0577 9.18028 9.91771 9.35141 9.73749 9.471C9.5608 9.59012 9.3523 9.65314 9.13923 9.6518H6.77093V5.73215H10.7263C11.8759 5.73215 12.7352 6.14956 13.3022 6.8884C13.8692 7.62724 14.1548 8.67412 14.1548 10.0447C14.1548 11.4152 13.8736 12.4666 13.3022 13.2031C12.6012 14.1094 11.6839 14.8639 9.80223 14.8639V14.9977C11.3647 14.9977 12.3156 14.8705 12.9272 14.6138C13.5079 14.383 14.0275 14.0209 14.4451 13.5559C14.8434 13.0983 15.1394 12.5611 15.3134 11.98C15.6853 10.7082 15.6853 9.35656 15.3134 8.08483L15.32 8.08707Z" fill="white"/>
</svg>
