<svg width="20" height="20" viewBox="0 0 20 20" fill="none" xmlns="http://www.w3.org/2000/svg">
<path d="M10 0.25C15.3841 0.25 19.75 4.61585 19.75 10C19.75 15.3842 15.3841 19.75 10 19.75C4.6158 19.75 0.25 15.3869 0.25 10C0.25 4.61312 4.6158 0.25 10 0.25Z" fill="#393939" stroke="#B0B0B0" stroke-width="0.5"/>
<path d="M6.54091 4.45447L6.61417 4.38608C6.85837 4.16016 7.10257 3.92324 7.36142 3.68144L7.66545 3.39323C7.32011 3.51523 6.98492 3.66427 6.66301 3.83898L6.36264 4.11741L6.28938 4.1858C5.58975 4.83427 4.9707 5.40702 4.37607 5.82589C4.211 6.04913 4.05933 6.28198 3.92186 6.52321C4.76557 6.09822 5.59829 5.32642 6.54091 4.45447Z" fill="white"/>
<path d="M6.34188 5.38259C5.26618 6.2753 4.4127 6.98238 3.56044 7.24494C3.50061 7.38416 3.44689 7.5246 3.39683 7.66748C4.42125 7.45255 5.3895 6.64899 6.57143 5.66469C6.93773 5.35694 7.31746 5.02722 7.71429 4.67795C8.34921 4.12352 9.00977 3.54344 9.71551 3C9.49084 3.00855 9.26984 3.02931 9.05128 3.05862C8.50306 3.50436 7.98047 3.96232 7.47863 4.40195C7.08181 4.75 6.70818 5.07606 6.34188 5.38259Z" fill="white"/>
<path d="M6.32235 6.64777C5.07571 7.56368 4.16484 8.18406 3.22589 8.22436C3.19414 8.34729 3.16525 8.46942 3.1392 8.59072C4.21246 8.59072 5.2149 7.90806 6.53847 6.9372C7.04152 6.57084 7.55556 6.14829 8.10135 5.70255C9.15751 4.83915 10.2991 3.90248 11.591 3.16731C11.4127 3.12579 11.2308 3.08915 11.0476 3.06229C9.88523 3.77181 8.84005 4.62544 7.87302 5.41801C7.32845 5.86742 6.81685 6.28507 6.32235 6.64777Z" fill="white"/>
<path d="M6.30403 7.91294C4.94017 8.78001 4.02931 9.25384 3.05983 9.09508C3.04437 9.21639 3.03215 9.33851 3.0232 9.46144C4.14652 9.63852 5.15995 9.07554 6.50183 8.22191C7.1453 7.81281 7.80953 7.30356 8.5116 6.765C9.90721 5.69644 11.4701 4.50087 13.2735 3.79867C13.1286 3.72214 12.9805 3.6505 12.8291 3.58374C11.1197 4.31647 9.6276 5.45098 8.29304 6.47435C7.59219 7.00802 6.93407 7.51239 6.30403 7.91294Z" fill="white"/>
<path d="M6.46154 9.50052C7.25519 9.07188 8.0757 8.47714 8.94505 7.84578C10.3663 6.81507 11.978 5.64759 13.7924 5.00645C14.0794 4.90509 14.3602 4.81961 14.6398 4.74755C14.5315 4.64823 14.4164 4.5542 14.2943 4.46545C14.0879 4.52407 13.8816 4.58758 13.6703 4.66451C11.8059 5.3203 10.1709 6.50366 8.73016 7.54902C7.87546 8.17184 7.05983 8.76047 6.28816 9.17812C4.89011 9.93283 3.99023 10.2528 3 9.93039C3 9.95237 3 9.97313 3 9.99511C3 10.1026 3 10.21 3.00855 10.3163C4.1746 10.646 5.18559 10.1893 6.46154 9.50052Z" fill="white"/>
<path d="M6.41881 10.7779C7.36997 10.3542 8.35409 9.6715 9.39561 8.94609C10.7387 8.01431 12.1233 7.05077 13.6984 6.43039C14.3328 6.17647 14.9921 5.98982 15.6655 5.87352C15.5836 5.76239 15.5006 5.65248 15.4127 5.54501C14.7808 5.66754 14.1618 5.84949 13.5641 6.08845C11.9499 6.72349 10.4823 7.74442 9.18682 8.64323C8.16118 9.36009 7.1917 10.0342 6.27107 10.4433C4.92919 11.0405 4.06227 11.2542 3.0464 10.7913C3.06227 10.933 3.08303 11.0722 3.10745 11.2114C4.15629 11.6047 5.10745 11.3629 6.41881 10.7779Z" fill="white"/>
<path d="M6.37851 12.0553C7.49695 11.6633 8.64469 10.8891 9.86081 10.0684C11.0427 9.27095 12.265 8.44541 13.6068 7.85801C14.484 7.46495 15.4121 7.19732 16.3639 7.063C16.3101 6.94087 16.2527 6.82974 16.1929 6.71617C15.2498 6.85962 14.3302 7.1295 13.4591 7.51851C12.0867 8.12912 10.851 8.95832 9.65568 9.76432C8.46032 10.5703 7.33578 11.3336 6.25763 11.7097C4.94139 12.1713 4.11233 12.1982 3.21368 11.717C3.25397 11.8782 3.30159 12.037 3.35287 12.1933C4.23321 12.5682 5.10623 12.5011 6.37851 12.0553Z" fill="white"/>
<path d="M6.33456 13.3315C7.62638 13.0005 8.93773 12.1273 10.326 11.2041C11.3419 10.5276 12.3932 9.8278 13.514 9.28436C14.5426 8.76528 15.6492 8.41834 16.79 8.25732C16.7591 8.13764 16.7257 8.01918 16.6899 7.90195C15.5292 8.07368 14.4032 8.42902 13.3541 8.95463C12.21 9.50907 11.149 10.2149 10.1233 10.8988C8.76191 11.8049 7.47619 12.661 6.2442 12.9749C5.13553 13.2582 4.38096 13.235 3.57998 12.7868C3.66138 12.9667 3.74685 13.143 3.83639 13.3156C4.57265 13.6062 5.31991 13.5904 6.33456 13.3315Z" fill="white"/>
<path d="M10.7839 12.3496C11.6313 11.783 12.5092 11.198 13.4212 10.7095C14.5922 10.083 15.6276 9.69958 16.6752 9.50541C16.779 9.48587 16.8791 9.47243 16.9792 9.45778C16.9703 9.33484 16.9577 9.21272 16.9414 9.09142C16.8315 9.10729 16.7204 9.12439 16.6068 9.14515C15.5226 9.35031 14.453 9.7411 13.2479 10.3859C12.3199 10.8829 11.4347 11.4728 10.58 12.0443C9.05861 13.0591 7.62271 14.019 6.23199 14.2425C5.46398 14.3646 4.87302 14.3182 4.33456 14.1033C4.46073 14.2775 4.59504 14.4452 4.73749 14.6064C5.25082 14.7016 5.77727 14.7016 6.2906 14.6064C7.76191 14.3683 9.22711 13.3876 10.7839 12.3496Z" fill="white"/>
<path d="M13.3285 12.1347C14.5128 11.4374 15.5189 11.0014 16.4945 10.7632C16.6581 10.7229 16.8181 10.6912 16.9744 10.6643C16.9858 10.5406 16.9943 10.4156 17 10.2894C16.8059 10.3187 16.6093 10.3578 16.4078 10.4115C15.3956 10.6558 14.3578 11.1064 13.1429 11.8233C12.4103 12.2519 11.7057 12.7343 11.0208 13.2008C9.35043 14.3377 7.77168 15.4112 6.221 15.5211C6.04913 15.5336 5.87668 15.536 5.70452 15.5284C5.86732 15.6554 6.03623 15.7776 6.21124 15.8948H6.24665C7.89622 15.78 9.51404 14.6736 11.2271 13.5134C11.9072 13.0359 12.6105 12.5572 13.3285 12.1347Z" fill="white"/>
<path d="M13.2356 13.5586C14.4481 12.7697 15.3956 12.2995 16.3089 12.0211C16.4566 11.9759 16.5995 11.9381 16.7411 11.9051C16.7778 11.7748 16.8111 11.6429 16.8413 11.5094C16.6254 11.5523 16.4119 11.6061 16.2015 11.6706C15.2552 11.9588 14.2784 12.4461 13.0354 13.2509C12.4933 13.6014 11.956 13.9836 11.4359 14.35C10.1123 15.283 8.84248 16.1818 7.5873 16.575C7.77533 16.6434 7.96703 16.7032 8.16117 16.757C9.31135 16.2941 10.4591 15.4881 11.6471 14.6504C12.1648 14.2828 12.6996 13.9054 13.2356 13.5586Z" fill="white"/>
<path d="M15.9963 12.9346C14.8974 13.34 13.8291 14.0471 12.9304 14.6846C12.5641 14.9435 12.1978 15.2158 11.8462 15.4784C11.1136 16.0218 10.3968 16.553 9.68864 16.9927C9.79365 16.9927 9.89866 17.0012 10.0049 17.0012C10.1111 17.0012 10.2491 17.0012 10.3712 16.9915C10.9316 16.6165 11.4957 16.1977 12.0696 15.7702C12.4225 15.5089 12.7875 15.2378 13.1477 14.9813C14.0269 14.3573 15.0696 13.6673 16.1282 13.2716L16.21 13.2436C16.2914 13.0946 16.3647 12.9423 16.4298 12.7868C16.2857 12.8316 16.1412 12.8809 15.9963 12.9346Z" fill="white"/>
<path d="M12.2051 16.6043L12.116 16.6739C12.5912 16.5231 13.0489 16.3217 13.4811 16.0731C13.8608 15.7837 14.2393 15.5101 14.6142 15.2634C14.9346 14.9825 15.2288 14.6731 15.4933 14.339C14.3785 14.8885 13.2833 15.7531 12.2051 16.6043Z" fill="white"/>
</svg>
