<svg width="20" height="20" viewBox="0 0 20 20" fill="none" xmlns="http://www.w3.org/2000/svg">
<path d="M10 0.25C15.3841 0.25 19.75 4.61585 19.75 10C19.75 15.3842 15.3841 19.75 10 19.75C4.6158 19.75 0.25 15.3869 0.25 10C0.25 4.61312 4.6158 0.25 10 0.25Z" fill="#393939" stroke="#B0B0B0" stroke-width="0.5"/>
<path fill-rule="evenodd" clip-rule="evenodd" d="M6.15916 5.03109C5.99677 5.08972 6.14302 5.17997 6.4811 5.22977C7.02197 5.30941 7.3683 5.55315 7.51407 5.95693C7.60812 6.21728 7.65954 12.6055 7.57428 13.4371C7.48198 14.338 7.29454 14.5587 6.45328 14.7568C5.56621 14.9657 5.85172 15 8.47659 15C10.3664 15 10.8811 14.9855 10.8616 14.9326C10.8479 14.8954 10.7034 14.8335 10.5405 14.795C9.92597 14.6496 9.79249 14.5986 9.61469 14.4415C9.23169 14.103 9.22892 14.0753 9.21068 10.3732C9.19394 6.97999 9.22537 6.26257 9.40636 5.89962C9.58759 5.53628 9.69296 5.51859 11.5569 5.53851C13.1162 5.55517 13.2089 5.56197 13.4956 5.68107C14.0512 5.91192 14.296 6.19883 14.7237 7.12092C14.7896 7.26309 14.8716 7.37947 14.906 7.37947C15.0277 7.37947 15.0304 7.1232 14.9188 6.16383C14.8335 5.4303 14.7814 5.17093 14.7056 5.1024C14.6141 5.01966 14.2378 5.01074 10.4378 5.00132C8.14574 4.9956 6.22033 5.00899 6.15916 5.03109Z" fill="white"/>
</svg>
