<svg width="115" height="18" viewBox="0 0 115 18" fill="currentColor" xmlns="http://www.w3.org/2000/svg">
<path d="M15.2496 0.309013V3.34764H7.97794C6.269 3.34764 5.02218 3.79399 4.23746 4.6867C3.47018 5.56223 3.08655 7.00429 3.08655 9.01288C3.08655 11.0043 3.47018 12.4464 4.23746 13.3391C5.00474 14.2146 6.25156 14.6524 7.97794 14.6524H10.9075C11.7794 14.6524 12.4072 14.4292 12.7909 13.9828C13.1745 13.5193 13.3663 12.927 13.3663 12.206C13.3663 11.5021 13.1832 10.9614 12.817 10.5837C12.4683 10.1888 11.9277 9.99142 11.1953 9.99142H7.27169V7.33906H11.5092C13.096 7.33906 14.2731 7.78541 15.0404 8.67811C15.8076 9.55365 16.1913 10.7468 16.1913 12.2575C16.1913 13.0129 16.0867 13.7253 15.8774 14.3949C15.6856 15.0472 15.363 15.6223 14.9096 16.1202C14.4736 16.6009 13.9069 16.9871 13.2094 17.279C12.5293 17.5536 11.6923 17.691 10.6983 17.691H7.97794C5.3971 17.691 3.41787 16.9785 2.04026 15.5536C0.680086 14.1116 0 11.9313 0 9.01288C0 6.07725 0.680086 3.897 2.04026 2.4721C3.41787 1.03004 5.3971 0.309013 7.97794 0.309013H15.2496Z" fill="#FFFFFF"/>
<path d="M20.7216 17.691H17.3212L23.5204 2.24034C23.8517 1.41631 24.3138 0.841202 24.9067 0.515021C25.5171 0.171673 26.2931 0 27.2347 0C28.1589 0 28.9175 0.171673 29.5104 0.515021C30.1207 0.841202 30.5828 1.41631 30.8967 2.24034L36.8606 17.691H33.434L28.0718 3.70815C27.9148 3.3133 27.6271 3.11588 27.2086 3.11588C26.7901 3.11588 26.4936 3.3133 26.3192 3.70815L20.7216 17.691Z" fill="#FFFFFF"/>
<path d="M42.5152 17.691H39.4548V3.88841C39.4548 2.72103 39.8036 1.78541 40.5011 1.08155C41.1986 0.360515 42.2624 0 43.6923 0C44.9478 0 45.9418 0.30043 46.6742 0.901289C47.4066 1.48498 47.8949 2.32618 48.139 3.42489L50.6239 14.0601C50.7809 14.7124 51.1732 15.0386 51.801 15.0386C52.4113 15.0386 52.8037 14.7124 52.9781 14.0601L55.463 3.42489C55.7071 2.32618 56.1693 1.48498 56.8493 0.901289C57.5469 0.30043 58.5321 0 59.8051 0C61.235 0 62.2987 0.360515 62.9963 1.08155C63.6938 1.78541 64.0426 2.72103 64.0426 3.88841V17.691H60.9822V4.04292C60.9822 3.69957 60.8688 3.43348 60.6421 3.24464C60.4329 3.03863 60.1277 2.93562 59.7266 2.93562C59.3604 2.93562 59.0814 3.02146 58.8896 3.19313C58.6978 3.34764 58.567 3.57082 58.4972 3.86266L55.96 14.4979C55.681 15.6481 55.2189 16.5236 54.5737 17.1245C53.9285 17.7082 52.9955 18 51.7748 18C50.5367 18 49.5776 17.6996 48.8976 17.0987C48.2349 16.4979 47.7728 15.6309 47.5112 14.4979L45.0001 3.86266C44.9304 3.57082 44.7909 3.34764 44.5816 3.19313C44.3898 3.02146 44.1195 2.93562 43.7708 2.93562C43.3697 2.93562 43.0558 3.03863 42.8291 3.24464C42.6198 3.43348 42.5152 3.69957 42.5152 4.04292V17.691Z" fill="#FFFFFF"/>
<path d="M71.329 17.691H68.2686V3.88841C68.2686 2.72103 68.6173 1.78541 69.3149 1.08155C70.0124 0.360515 71.0761 0 72.506 0C73.7616 0 74.7556 0.30043 75.488 0.901289C76.2204 1.48498 76.7086 2.32618 76.9528 3.42489L79.4377 14.0601C79.5946 14.7124 79.987 15.0386 80.6148 15.0386C81.2251 15.0386 81.6175 14.7124 81.7918 14.0601L84.2768 3.42489C84.5209 2.32618 84.983 1.48498 85.6631 0.901289C86.3606 0.30043 87.3459 0 88.6189 0C90.0488 0 91.1125 0.360515 91.81 1.08155C92.5076 1.78541 92.8563 2.72103 92.8563 3.88841V17.691H89.7959V4.04292C89.7959 3.69957 89.6826 3.43348 89.4559 3.24464C89.2466 3.03863 88.9415 2.93562 88.5404 2.93562C88.1742 2.93562 87.8952 3.02146 87.7034 3.19313C87.5115 3.34764 87.3807 3.57082 87.311 3.86266L84.7738 14.4979C84.4947 15.6481 84.0326 16.5236 83.3874 17.1245C82.7422 17.7082 81.8093 18 80.5886 18C79.3505 18 78.3914 17.6996 77.7113 17.0987C77.0487 16.4979 76.5866 15.6309 76.325 14.4979L73.8139 3.86266C73.7441 3.57082 73.6046 3.34764 73.3954 3.19313C73.2036 3.02146 72.9333 2.93562 72.5845 2.93562C72.1834 2.93562 71.8695 3.03863 71.6429 3.24464C71.4336 3.43348 71.329 3.69957 71.329 4.04292V17.691Z" fill="#FFFFFF"/>
<path d="M98.861 17.691H95.4606L101.66 2.24034C101.991 1.41631 102.453 0.841202 103.046 0.515021C103.657 0.171673 104.432 0 105.374 0C106.298 0 107.057 0.171673 107.65 0.515021C108.26 0.841202 108.722 1.41631 109.036 2.24034L115 17.691H111.573L106.211 3.70815C106.054 3.3133 105.767 3.11588 105.348 3.11588C104.929 3.11588 104.633 3.3133 104.459 3.70815L98.861 17.691Z" fill="#FFFFFF"/>
</svg>
