<svg width="20" height="20" viewBox="0 0 20 20" fill="none" xmlns="http://www.w3.org/2000/svg">
<path d="M10 0.25C15.3841 0.25 19.75 4.61585 19.75 10C19.75 15.3842 15.3841 19.75 10 19.75C4.6158 19.75 0.25 15.3869 0.25 10C0.25 4.61312 4.6158 0.25 10 0.25Z" fill="#393939" stroke="#B0B0B0" stroke-width="0.5"/>
<path fill-rule="evenodd" clip-rule="evenodd" d="M13.8981 12.7788L13.2437 12.2997C13.7289 11.6355 13.9997 10.8406 13.9997 10.0458C14.011 9.1856 13.7176 8.3363 13.1648 7.65034L13.8981 6.98615C13.9884 6.90992 13.9884 6.77926 13.9094 6.69215L13.7289 6.51794C12.815 5.62509 11.5739 5.10245 10.2763 5.05889V4.32938C10.2876 3.90472 9.59937 3.90472 9.59937 4.32938V5.08068C9.29474 5.10245 8.9901 5.16778 8.69674 5.244V4.31849C8.70803 3.89384 8.01978 3.89384 8.01978 4.31849V5.48355H8.00849C6.97047 5.95174 6.0904 6.7466 5.5714 7.75922C5.0411 8.75007 4.87186 9.90424 5.09751 11.004C5.33446 12.1037 5.94373 13.0945 6.83507 13.8241C7.72642 14.5427 8.8547 14.9456 10.0168 14.9783L13.774 15C13.8868 15 13.9771 14.9128 13.9771 14.804V12.9748C13.9771 12.8768 13.9546 12.8114 13.8981 12.7788ZM11.3821 9.22915L12.4539 8.29275C13.1873 9.2836 13.2099 10.71 12.4652 11.7226L11.3256 10.8842C11.5175 10.6446 11.619 10.3724 11.6303 10.0676C11.619 9.77358 11.5513 9.49047 11.3821 9.22915ZM13.0519 13.9983C13.0519 14.0527 13.0068 14.0963 12.9504 14.0963L10.0958 14.0854C9.17063 14.0745 8.268 13.7805 7.53461 13.247C6.80122 12.7026 6.27093 11.9295 6.04527 11.0693C5.54882 9.33803 6.39504 7.37813 8.01978 6.50706L8.05362 6.49617V7.90077C8.04234 8.32541 8.73059 8.32541 8.73059 7.90077V6.1804C10.0281 5.74487 11.5626 5.96263 12.6457 6.77926C12.7022 6.81192 12.7022 6.88815 12.657 6.9317L10.6712 8.67384C10.2876 8.52141 9.84759 8.52141 9.47526 8.69562C8.87727 8.95694 8.49365 9.59935 8.60648 10.2309C8.62905 10.4378 8.70803 10.6337 8.82085 10.808C8.93368 10.9931 9.09165 11.1346 9.27217 11.2544C9.63321 11.483 10.0958 11.5484 10.5133 11.4286L13.0181 13.2687C13.0406 13.2905 13.0519 13.3232 13.0519 13.3559V13.9983ZM10.7051 10.024C10.7051 10.1329 10.6712 10.2527 10.6035 10.3398C10.5359 10.4378 10.4456 10.5031 10.3328 10.5575C10.2199 10.6011 10.0958 10.612 9.99428 10.5793C9.88145 10.5575 9.7799 10.5031 9.68963 10.4269C9.61065 10.3507 9.55423 10.2418 9.53168 10.1329C9.50912 10.024 9.52039 9.90424 9.56552 9.80624C9.61065 9.69735 9.68963 9.62113 9.7799 9.54492C10.0168 9.39248 10.3328 9.42514 10.5359 9.62113C10.6374 9.71913 10.7051 9.87156 10.7051 10.024Z" fill="white"/>
</svg>
