<svg width="20" height="20" viewBox="0 0 20 20" fill="none" xmlns="http://www.w3.org/2000/svg">
<path d="M19.75 10C19.75 15.3847 15.3847 19.75 10 19.75C4.61522 19.75 0.25 15.3847 0.25 10C0.25 4.61522 4.61522 0.25 10 0.25C15.3847 0.25 19.75 4.61522 19.75 10Z" fill="#393939" stroke="#B0B0B0" stroke-width="0.5"/>
<path d="M6.21463 6.73992C5.49352 7.2294 4.91007 7.89571 4.52008 8.67513C4.13009 9.45455 3.9466 10.321 3.98718 11.1916C4.02775 12.0622 4.29103 12.9078 4.75182 13.6476C5.21261 14.3873 5.85551 14.9965 6.61902 15.4168C7.38252 15.8371 8.2411 16.0544 9.11262 16.0481C9.98413 16.0417 10.8394 15.8118 11.5967 15.3805C12.354 14.9491 12.9879 14.3306 13.4379 13.5842C13.8878 12.8377 14.1387 11.9884 14.1666 11.1173L9.07542 10.9545L9.07542 6.73992L6.21463 6.73992Z" fill="white"/>
<path d="M13.483 13.5056C13.912 12.7626 14.1464 11.9233 14.1645 11.0655L9.07185 10.9584L13.483 13.5056Z" fill="white"/>
<path d="M8.80273 9.09075H8.48431V9.40918V11.6382V11.9566H8.80273H11.0317H11.3502V11.6382V9.40918V9.09075H11.0317H8.80273Z" fill="white" stroke="white" stroke-width="0.636855"/>
<path d="M10.3955 5.58831H10.0771V5.90674V6.54359V6.86202H10.3955H11.0324H11.3508V6.54359V5.90674V5.58831H11.0324H10.3955Z" fill="white" stroke="white" stroke-width="0.636855"/>
<path d="M12.9424 4.9511H12.624V5.26953V5.90639V6.22481H12.9424H13.5792H13.8977V5.90639V5.26953V4.9511H13.5792H12.9424Z" fill="white" stroke="white" stroke-width="0.636855"/>
<rect x="12.3057" y="7.18018" width="2.54742" height="2.54742" fill="white"/>
</svg>
