<svg width="20" height="20" viewBox="0 0 20 20" fill="none" xmlns="http://www.w3.org/2000/svg">
<path d="M10 0.25C15.3841 0.25 19.75 4.61585 19.75 10C19.75 15.3842 15.3841 19.75 10 19.75C4.6158 19.75 0.25 15.3869 0.25 10C0.25 4.61312 4.6158 0.25 10 0.25Z" fill="#393939" stroke="#B0B0B0" stroke-width="0.5"/>
<path d="M10 3L8.73016 3.73016L5.26984 5.73016L4 6.46032V13.381L5.26984 14.1111L8.7619 16.1111L10.0317 16.8413L11.3016 16.1111L14.7302 14.1111L16 13.381V6.46032L14.7302 5.73016L11.2698 3.73016L10 3ZM6.53968 11.9206V7.92064L10 5.92063L13.4603 7.92064V11.9206L10 13.9206L6.53968 11.9206Z" fill="#FEFEFD"/>
</svg>
