<svg width="20" height="20" viewBox="0 0 20 20" fill="none" xmlns="http://www.w3.org/2000/svg">
<path d="M10 0.25C15.3841 0.25 19.75 4.61585 19.75 10C19.75 15.3842 15.3841 19.75 10 19.75C4.6158 19.75 0.25 15.3869 0.25 10C0.25 4.61312 4.6158 0.25 10 0.25Z" fill="#393939" stroke="#B0B0B0" stroke-width="0.5"/>
<path d="M9.71738 14.4572C12.3176 14.4572 14.4254 12.3401 14.4254 9.7286C14.4254 7.11707 12.3176 5 9.71738 5C7.1172 5 5.00934 7.11707 5.00934 9.7286C5.00934 12.3401 7.1172 14.4572 9.71738 14.4572Z" fill="white"/>
<path d="M9.69037 14.4572C5.00789 14.4572 3.15987 8.27024 7.29589 5.66288C6.80402 10.8339 9.42057 10.9483 11.8486 10.8339C15.9172 10.6422 15.92 14.4572 15.92 14.4572H9.69037Z" fill="#CDCDCD"/>
<path fill-rule="evenodd" clip-rule="evenodd" d="M14.1662 11.2755C13.4579 13.0988 11.7161 14.4027 9.66386 14.4607C9.7121 14.462 9.76065 14.4627 9.8095 14.4627H16C16 14.4627 15.9984 12.2267 14.1662 11.2755Z" fill="#9B9B9B"/>
</svg>
