<svg width="20" height="20" viewBox="0 0 20 20" fill="none" xmlns="http://www.w3.org/2000/svg">
<path d="M10 0.25C15.3841 0.25 19.75 4.61585 19.75 10C19.75 15.3842 15.3841 19.75 10 19.75C4.6158 19.75 0.25 15.3869 0.25 10C0.25 4.61312 4.6158 0.25 10 0.25Z" fill="#393939" stroke="#B0B0B0" stroke-width="0.5"/>
<path d="M12.6053 8.17648C12.3976 8.05779 12.1306 8.05779 11.8932 8.17648L10.2315 9.15571L9.10386 9.77886L7.47181 10.7581C7.26409 10.8768 6.99703 10.8768 6.75964 10.7581L5.48368 9.98657C5.27596 9.86788 5.1276 9.63049 5.1276 9.36343V7.87975C5.1276 7.64236 5.24629 7.40497 5.48368 7.2566L6.75964 6.51476C6.96736 6.39607 7.23442 6.39607 7.47181 6.51476L8.74777 7.28627C8.95549 7.40497 9.10386 7.64236 9.10386 7.90942V8.88865L10.2315 8.23583V7.22693C10.2315 6.98954 10.1128 6.75215 9.87537 6.60378L7.50148 5.20912C7.29377 5.09043 7.02671 5.09043 6.78932 5.20912L4.35608 6.63346C4.11869 6.75215 4 6.98954 4 7.22693V10.0162C4 10.2536 4.11869 10.491 4.35608 10.6394L6.75964 12.034C6.96736 12.1527 7.23442 12.1527 7.47181 12.034L9.10386 11.0845L10.2315 10.4317L11.8635 9.48212C12.0712 9.36343 12.3383 9.36343 12.5757 9.48212L13.8516 10.224C14.0593 10.3427 14.2077 10.58 14.2077 10.8471V12.3308C14.2077 12.5682 14.089 12.8056 13.8516 12.9539L12.6053 13.6958C12.3976 13.8145 12.1306 13.8145 11.8932 13.6958L10.6172 12.9539C10.4095 12.8352 10.2611 12.5978 10.2611 12.3308V11.3812L9.13353 12.034V13.0133C9.13353 13.2507 9.25223 13.4881 9.48961 13.6364L11.8932 15.0311C12.1009 15.1498 12.368 15.1498 12.6053 15.0311L15.0089 13.6364C15.2166 13.5177 15.365 13.2803 15.365 13.0133V10.1943C15.365 9.9569 15.2463 9.71951 15.0089 9.57114L12.6053 8.17648Z" fill="white"/>
</svg>
