<svg width="20" height="20" viewBox="0 0 20 20" fill="none" xmlns="http://www.w3.org/2000/svg">
<path d="M10 0.25C15.3841 0.25 19.75 4.61585 19.75 10C19.75 15.3842 15.3841 19.75 10 19.75C4.6158 19.75 0.25 15.3869 0.25 10C0.25 4.61312 4.6158 0.25 10 0.25Z" fill="#393939" stroke="#B0B0B0" stroke-width="0.5"/>
<path d="M9.13782 13.4776V10.2309C9.13782 9.99951 9.02541 9.78791 8.82704 9.65566L4.9059 7.05699C4.7472 6.9512 4.5356 6.99748 4.4298 7.15618C4.39013 7.21569 4.37029 7.28181 4.37029 7.34794V13.4842" stroke="white" stroke-width="0.75"/>
<path d="M10.9761 13.4776V10.2309C10.9761 9.99951 11.0885 9.78791 11.2868 9.65566L15.208 7.05699C15.3667 6.9512 15.5783 6.99748 15.6841 7.15618C15.7238 7.21569 15.7436 7.28181 15.7436 7.34794V13.4842" stroke="white" stroke-width="0.75"/>
<path d="M4.37691 12.9685C4.5885 12.9685 4.75381 13.1404 4.75381 13.3454V13.6231C4.75381 13.8347 4.58189 14 4.37691 14C4.16531 14 4 13.8281 4 13.6231V13.3454C4 13.1338 4.16531 12.9685 4.37691 12.9685Z" fill="white"/>
<path d="M10.9761 12.9685C11.1877 12.9685 11.353 13.1404 11.353 13.3454V13.6231C11.353 13.8347 11.1811 14 10.9761 14C10.7645 14 10.5992 13.8281 10.5992 13.6231V13.3454C10.5925 13.1338 10.7645 12.9685 10.9761 12.9685Z" fill="white"/>
<path d="M15.7304 12.9685C15.942 12.9685 16.1073 13.1404 16.1073 13.3454V13.6231C16.1073 13.8347 15.9354 14 15.7304 14C15.5188 14 15.3535 13.8281 15.3535 13.6231V13.3454C15.3535 13.1338 15.5254 12.9685 15.7304 12.9685Z" fill="white"/>
<path d="M9.13783 12.9685C9.34942 12.9685 9.51473 13.1404 9.51473 13.3454V13.6231C9.51473 13.8347 9.34281 14 9.13783 14C8.92623 14 8.76092 13.8281 8.76092 13.6231V13.3454C8.75431 13.1338 8.92623 12.9685 9.13783 12.9685Z" fill="white"/>
</svg>
