<svg width="20" height="20" viewBox="0 0 20 20" fill="none" xmlns="http://www.w3.org/2000/svg">
<path d="M10 0.25C15.3841 0.25 19.75 4.61585 19.75 10C19.75 15.3842 15.3841 19.75 10 19.75C4.6158 19.75 0.25 15.3869 0.25 10C0.25 4.61312 4.6158 0.25 10 0.25Z" fill="#393939" stroke="#B0B0B0" stroke-width="0.5"/>
<path d="M11.321 4.17898V4.21026L9.44384 4.74196V4.77324C10.2034 4.77332 10.968 4.83579 11.7278 4.83579C12.0924 4.83579 12.6005 4.74446 12.9479 4.85766C13.4718 5.02836 14.2105 5.68167 14.481 6.14942L12.7289 5.96176V5.99304C13.3682 6.26843 13.9706 6.69699 14.5748 7.04328C14.8215 7.18465 15.2117 7.32096 15.3977 7.5378C15.5577 7.72424 15.6254 8.04689 15.7011 8.27625C15.9434 9.01013 16.0433 9.79199 15.9827 10.5595L14.1368 8.93306C14.5519 9.64395 14.8715 10.4177 15.2396 11.1537C15.3761 11.4267 15.6636 11.8138 15.6787 12.1233C15.6963 12.4818 15.3442 13.0124 15.1689 13.3118C15.0228 13.5614 14.8347 13.9537 14.5748 14.0937L13.3234 10.841H13.2921C13.2921 11.9157 13.3234 12.9868 13.3234 14.0625C13.3234 14.3773 13.4901 14.9928 13.3225 15.2721C13.2263 15.4323 12.9519 15.5485 12.7915 15.6332C12.3109 15.8868 11.7715 16.1472 11.2272 16.2206L11.4775 12.6863H11.4462C11.2312 13.5911 10.6427 14.492 10.2706 15.3448C10.1606 15.5968 10.0186 16.1811 9.79741 16.3448C9.63278 16.4667 9.19549 16.3655 9.00583 16.3441C8.36096 16.2715 7.70888 16.0797 7.12865 15.7904C6.91533 15.684 6.65982 15.5917 6.50292 15.4074L7.66052 14.4753L8.32323 13.9049L8.61237 13.1867L9.34998 11.3101H9.38127L9.41256 13.6246H9.44384C9.76619 12.6721 10.1903 11.7434 10.5639 10.8097C10.6943 10.4838 11.0239 9.9722 11.0153 9.62115C11.0095 9.38623 10.7277 9.06696 10.6074 8.87051C10.2317 8.25748 9.90222 7.54743 9.44384 6.9939L9.69163 8.65157L9.77188 9.40221L9.22362 10.059L8.78636 10.478L8.12981 10.531L6.5342 10.6533L7.09736 11.1537V11.185C6.8767 11.388 6.56637 11.7085 6.28391 11.8145C6.09504 11.8854 5.79408 11.796 5.59561 11.7821C5.32083 11.7628 4.94781 11.7989 4.68953 11.6978C4.47543 11.6141 4.19516 11.1771 4.12515 10.9661L5.3766 10.059V10.0278C4.86149 9.85992 4.52977 9.9292 4 9.99647C4.44813 9.36049 5.20592 8.95111 5.64054 8.30752C5.82453 8.03507 5.65397 7.60792 5.86198 7.35123C6.13937 7.00894 6.65631 6.82494 6.89109 6.45328C6.95413 6.35347 6.86909 6.23753 6.82016 6.14942C6.68707 5.90987 6.55689 5.66882 6.42232 5.43005C6.38544 5.36455 6.23886 5.15638 6.33544 5.09026C6.42592 5.0283 6.59008 5.17549 6.65935 5.22154C6.95156 5.4158 7.24447 5.60919 7.53537 5.80538L6.94093 4.67941C8.36578 4.08637 9.7889 3.7827 11.321 4.17898ZM5.93976 9.46477C6.25334 9.31561 6.37389 8.97306 6.65982 8.80602C6.89928 8.66611 7.22322 8.72369 7.4728 8.60675C7.76129 8.4716 8.1046 8.06491 8.28624 7.80709L7.03479 7.83837L6.55307 7.87052L6.50386 8.30752L5.93976 9.46477ZM7.62923 12.9365C7.28642 13.1633 6.89497 13.3281 6.56549 13.573C6.438 13.6678 6.26417 13.9063 6.09619 13.9107C5.95784 13.9143 5.79833 13.7597 5.68947 13.6871C5.19746 13.3592 5.08589 12.89 4.90731 12.3422C5.2897 12.3735 5.65089 12.5954 6.03362 12.6089C6.31767 12.619 6.56849 12.3946 6.84707 12.3882C7.08851 12.3826 7.47101 12.7701 7.62923 12.9365V12.9365Z" fill="white"/>
</svg>
