<svg width="20" height="20" viewBox="0 0 20 20" fill="none" xmlns="http://www.w3.org/2000/svg">
<path d="M10 0.25C15.3841 0.25 19.75 4.61585 19.75 10C19.75 15.3842 15.3841 19.75 10 19.75C4.6158 19.75 0.25 15.3869 0.25 10C0.25 4.61312 4.6158 0.25 10 0.25Z" fill="#393939" stroke="#B0B0B0" stroke-width="0.5"/>
<path d="M6 12.6736H14.4357V14H6V12.6736Z" fill="white"/>
<path d="M6.05262 7.14331C6.05262 6.79842 6.03157 6.46391 6 6.11857H7.50271L7.5549 6.82006C7.72196 6.58247 8.12977 6 9.18961 6C10.4069 6 10.7528 6.76641 10.8559 7.02474C11.2944 6.15103 12.01 6.01082 12.5559 6.01082C13.6258 6.01082 14.056 6.66903 14.1713 6.88453C14.4546 7.35926 14.4344 8.01702 14.4344 8.49174V11.4753H12.8721V8.36461C12.8721 7.78213 12.7883 7.13474 11.9806 7.13474C11.0466 7.13474 11.0256 8.0301 11.0256 8.83933V11.4753H9.46234V8.32989C9.46234 7.90927 9.45182 7.13249 8.59149 7.13249C7.61585 7.13249 7.61585 7.99583 7.61585 8.36461V11.4753H6.05262V7.14331Z" fill="white"/>
</svg>
