<svg width="20" height="20" viewBox="0 0 20 20" fill="none" xmlns="http://www.w3.org/2000/svg">
<path d="M10 0.25C15.3841 0.25 19.75 4.61585 19.75 10C19.75 15.3842 15.3841 19.75 10 19.75C4.6158 19.75 0.25 15.3869 0.25 10C0.25 4.61312 4.6158 0.25 10 0.25Z" fill="#393939" stroke="#B0B0B0" stroke-width="0.5"/>
<path fill-rule="evenodd" clip-rule="evenodd" d="M4 9C4 9 4.00082 10.5161 10.0004 10.5161C16 10.5161 16 9 16 9C16 10.5161 14.5838 13.6978 13.7083 14.2411C12.8328 14.7843 13.1672 12.4249 12.2917 12.4809C11.4162 12.5369 10.8755 16 10 16C9.12455 16 8.58337 12.4255 7.70787 12.4821C6.83238 12.5386 7.16716 14.7843 6.29166 14.2411C5.41613 13.6978 3.99996 10.5161 4 9Z" fill="white"/>
<path fill-rule="evenodd" clip-rule="evenodd" d="M5 9C5 8.44774 7.23859 8 10 8C12.7615 8 15 8.44774 15 9C15 9.55231 12.4993 10 10 10C7.50071 10 5 9.55231 5 9Z" fill="white"/>
<path fill-rule="evenodd" clip-rule="evenodd" d="M12 5C12 4.44771 12.6716 4 13.5 4C14.3284 4 15 4.44771 15 5C15 5.55229 14.3284 6 13.5 6C12.6716 6 12 5.55229 12 5Z" fill="white"/>
</svg>
