<svg width="20" height="20" viewBox="0 0 20 20" fill="none" xmlns="http://www.w3.org/2000/svg">
<path d="M10 0.25C15.3841 0.25 19.75 4.61585 19.75 10C19.75 15.3842 15.3841 19.75 10 19.75C4.6158 19.75 0.25 15.3869 0.25 10C0.25 4.61312 4.6158 0.25 10 0.25Z" fill="#393939" stroke="#B0B0B0" stroke-width="0.5"/>
<path fill-rule="evenodd" clip-rule="evenodd" d="M9.12727 14V13.9818V13.5983V12.4849C7.98782 12.1262 7.16364 11.0842 7.16364 9.85455C7.16364 8.32824 8.43353 7.09091 10 7.09091C11.5665 7.09091 12.8364 8.32824 12.8364 9.85455C12.8364 11.0842 12.0122 12.1262 10.8727 12.4849V13.5983V13.9818V14H14V12.8727H12.4557C13.3849 12.1688 13.9818 11.0744 13.9818 9.84545C13.9818 7.72167 12.1991 6 10 6C7.80091 6 6.01818 7.72167 6.01818 9.84545C6.01818 11.0744 6.61515 12.1688 7.54431 12.8727H6V14H9.12727Z" fill="white"/>
</svg>
