<svg width="20" height="20" viewBox="0 0 20 20" fill="none" xmlns="http://www.w3.org/2000/svg">
<path d="M10 0.25C15.3841 0.25 19.75 4.61585 19.75 10C19.75 15.3842 15.3841 19.75 10 19.75C4.6158 19.75 0.25 15.3869 0.25 10C0.25 4.61312 4.6158 0.25 10 0.25Z" fill="#393939" stroke="#B0B0B0" stroke-width="0.5"/>
<path fill-rule="evenodd" clip-rule="evenodd" d="M7.44954 5.49304C8.12064 4.83565 9.19426 4.83565 9.86537 5.49304L11.4542 7.04941C12.1451 7.72626 12.1451 8.8387 11.4542 9.51556L8.68529 12.2279L10.6711 14.1732C11.0494 14.5438 11.0557 15.1509 10.685 15.5293C10.3144 15.9076 9.70729 15.9139 9.32895 15.5432L4.51822 10.8307C3.82726 10.1538 3.82726 9.04143 4.51822 8.36458L7.44954 5.49304ZM7.3149 10.8855L9.97218 8.2825L8.65747 6.99462L6.00019 9.59764L7.3149 10.8855Z" fill="#9D9D9D"/>
<path fill-rule="evenodd" clip-rule="evenodd" d="M11.4772 6.80819C12.1483 6.15079 13.2219 6.15079 13.893 6.80819L15.4818 8.36455C16.1727 9.0414 16.1727 10.1538 15.4818 10.8307L10.6711 15.5432C10.2927 15.9139 9.68557 15.9076 9.31496 15.5293C8.94435 15.1509 8.95061 14.5438 9.32895 14.1732L11.3147 12.2279L9.88837 10.8307C9.19743 10.1538 9.19743 9.0414 9.88837 8.36455L11.4772 6.80819ZM12.6851 10.8855L13.9998 9.59761L12.6851 8.30974L11.3704 9.59761L12.6851 10.8855Z" fill="#FCFDFD"/>
<path opacity="0.95" d="M11.3696 9.60088L9.97304 8.27436L8.63349 9.58993L9.99693 10.9464L11.3696 9.60088Z" fill="#EDEDED"/>
</svg>
