<svg width="22" height="22" viewBox="0 0 22 22" fill="none" xmlns="http://www.w3.org/2000/svg">
<path d="M10.9768 21.1001C16.6101 21.1001 21.1519 16.5387 21.1519 10.925C21.1519 5.31131 16.6101 0.749881 10.9768 0.749881C5.34374 0.749881 0.801639 5.29199 0.801639 10.925C0.801639 16.558 5.34374 21.1001 10.9768 21.1001Z" fill="#393939" stroke="#B0B0B0" stroke-width="0.500237"/>
<path d="M9.83618 12.1805C9.74112 12.1424 9.64605 12.1424 9.57 12.0854C9.51296 12.0284 9.47493 11.9143 9.4369 11.8382C8.94255 10.8875 8.23906 10.1841 7.23135 9.80378C6.85108 9.65168 6.4518 9.5376 6.0335 9.5376C5.93844 9.5376 5.84337 9.5376 5.7483 9.57562C5.5962 9.63266 5.52014 9.76576 5.55817 9.91787C5.55817 9.97491 5.57718 10.0129 5.5962 10.07C5.61521 10.127 5.63422 10.2031 5.63422 10.2601C5.65324 10.5073 5.48212 10.7164 5.23494 10.7735C5.12086 10.7925 4.98777 10.7925 4.87369 10.7545C4.6075 10.6594 4.3223 10.5833 4.05611 10.5073C3.67584 10.3932 3.31459 10.4693 2.99136 10.7164C2.72517 10.9256 2.478 11.1537 2.23082 11.3819C1.83154 11.7622 1.52733 12.2375 1.22311 12.6938C1.2041 12.7128 1.2041 12.7509 1.2041 12.7699C1.28016 13.2642 1.39424 13.7586 1.54634 14.2339C2.04069 15.793 2.89629 17.1239 4.07512 18.2457C4.09414 18.2647 4.13216 18.3028 4.17019 18.3028C4.36033 18.3408 4.55046 18.3788 4.74059 18.3978C5.71028 18.4549 6.64193 18.3788 7.55458 18.0176C7.82076 17.9225 8.06794 17.7894 8.2961 17.6183C8.50525 17.4852 8.67637 17.276 8.77143 17.0479C8.90453 16.7247 8.77143 16.4395 8.42919 16.3634C8.06794 16.2874 7.5926 16.4775 7.38346 16.8007C7.3074 16.9148 7.25036 17.0289 7.17431 17.143C7.06023 17.3331 6.88911 17.4282 6.67996 17.4852C6.52785 17.5232 6.35673 17.5042 6.20462 17.4852C5.40606 17.4091 4.75961 17.0479 4.30328 16.3824C3.73288 15.5648 3.80894 14.5761 4.41737 13.8346C4.66454 13.5304 4.98777 13.4353 5.36804 13.5304C5.78633 13.6255 6.0335 14.0057 5.95745 14.424C5.95745 14.4621 5.95745 14.5001 5.90041 14.5191C5.86238 14.5191 5.82436 14.5001 5.80534 14.4621C5.78633 14.4431 5.76732 14.405 5.76732 14.386C5.71028 14.1959 5.57718 14.1198 5.38705 14.0818C5.1779 14.0628 4.96875 14.0628 4.77862 14.1959C4.36033 14.5191 4.30328 15.3367 4.91171 15.6599C5.13987 15.793 5.40606 15.85 5.67225 15.8691C6.18561 15.8881 6.62292 15.736 6.98417 15.3557C7.4405 14.8613 7.5926 14.2909 7.47852 13.6445C7.38346 12.998 7.04121 12.5037 6.43279 12.2185C6.10956 12.0474 5.76732 11.9903 5.40606 11.9903C5.12086 11.9903 4.83566 12.0093 4.56947 12.1234C3.98006 12.3706 3.54275 12.7699 3.29558 13.3593C3.23853 13.5114 3.16248 13.6825 3.10544 13.8346C2.93432 14.31 2.87728 14.8043 3.01037 15.2987C3.08643 15.6029 3.14347 15.9071 3.29558 16.1923C3.31459 16.2303 3.3336 16.2493 3.29558 16.2874C3.25755 16.3254 3.21952 16.3064 3.18149 16.2874C3.16248 16.2874 3.14347 16.2683 3.14347 16.2683C3.08643 16.2113 3.02939 16.1543 2.99136 16.0782C2.85827 15.812 2.7632 15.5458 2.72517 15.2606C2.59208 14.1579 2.87728 13.1692 3.50472 12.2565C3.67584 12.0093 3.88499 11.8382 4.15118 11.7241C4.45539 11.591 4.75961 11.534 5.08283 11.458C5.27297 11.4199 5.4631 11.4009 5.67225 11.4389C5.99548 11.477 6.3187 11.553 6.62292 11.6861C7.3074 11.9333 7.70668 12.4466 7.95386 13.1121C8.0109 13.3022 8.04892 13.4924 8.08695 13.6635C8.10596 13.7205 8.12498 13.7776 8.163 13.8346C8.31511 14.0057 8.48623 14.0438 8.69538 14.0057C8.88551 13.9487 9.03762 13.7776 9.07565 13.5684C9.09466 13.4544 9.07565 13.3213 9.03762 13.2072C9.30381 13.2642 9.47493 13.4163 9.62704 13.6065C9.7221 13.7396 9.74112 13.8917 9.70309 14.0628C9.68408 14.1769 9.60802 14.2339 9.51295 14.2719C9.37986 14.31 9.24677 14.31 9.11367 14.329C8.98058 14.348 8.84749 14.386 8.77143 14.5191C8.42919 15.0325 8.71439 15.6029 9.17071 15.736C9.7221 15.8881 10.2165 15.755 10.6347 15.3747C10.9009 15.1085 11.034 14.7853 11.0911 14.424C11.1671 14.0438 11.1671 13.6635 10.996 13.3022C10.7678 12.7318 10.3495 12.4086 9.83618 12.1805Z" fill="white"/>
<path fill-rule="evenodd" clip-rule="evenodd" d="M5.19721 9.02369C5.40635 9.13777 5.50142 9.28988 5.48241 9.51804C5.46339 9.7462 5.31129 9.87929 5.10214 9.95535C4.91201 10.0314 4.70286 10.0124 4.51273 9.95535C4.4747 9.93633 4.43667 9.93633 4.37963 9.91732C4.17048 9.86028 3.96134 9.80324 3.75219 9.78422C3.486 9.76521 3.21981 9.80324 2.97264 9.91732C2.70645 10.0504 2.45928 10.2025 2.25013 10.4117C1.88888 10.7729 1.54664 11.1342 1.18538 11.5144L1.09031 11.6095C1.09031 11.6095 1.09031 11.6095 1.0713 11.6285C1.05229 11.6475 1.05229 11.6666 1.01426 11.6666C0.995247 11.2483 0.995247 10.83 1.01426 10.3927C1.01426 10.3736 1.01426 10.3736 1.01426 10.3546C0.995247 10.2025 1.0713 10.1265 1.20439 10.0504C1.79381 9.72719 2.36421 9.40396 3.01067 9.19481C3.50502 9.0427 3.99936 8.90961 4.49371 8.87158C4.7599 8.8906 4.98806 8.90961 5.19721 9.02369ZM20.9213 10.868C20.9213 10.7919 20.9213 10.7159 20.8452 10.6779C20.7312 10.6018 20.6361 10.5448 20.522 10.5067C20.2178 10.3927 19.9326 10.4117 19.6664 10.5828C19.4763 10.7159 19.3051 10.849 19.134 11.0011C19.0199 11.1152 18.9059 11.2292 18.8108 11.3433C18.7538 11.4004 18.6777 11.4764 18.6207 11.5335C18.5256 11.6285 18.4115 11.7046 18.2784 11.7046C17.8411 11.7616 17.4608 11.6285 17.1186 11.3433C17.0616 11.2863 17.0045 11.2292 16.9665 11.1342C16.9285 11.0581 16.9665 11.0011 17.0045 10.944C17.0426 10.887 17.0996 10.906 17.1566 10.925C17.2137 10.944 17.2707 10.9821 17.3278 11.0201C17.632 11.2863 17.9932 11.3243 18.3735 11.2483C18.6777 11.1722 18.8488 10.9631 18.9819 10.6969C19.2291 10.2025 18.9439 9.55606 18.3925 9.42297C17.9552 9.30889 17.5369 9.40396 17.1376 9.57508C16.6813 9.78423 16.301 10.0884 15.9208 10.4117C15.2743 10.9631 14.6469 11.5335 14.0955 12.1799C13.373 13.0545 12.6505 13.9291 11.966 14.8418C11.0723 16.0016 10.0266 17.0283 8.77173 17.8269C8.1633 18.2072 7.51684 18.5304 6.81335 18.7205C6.22393 18.8726 5.6155 18.9297 4.98806 18.9297C4.98806 18.9297 4.98806 18.9297 4.96905 18.9297C4.95003 18.9297 4.93102 18.9297 4.89299 18.9487C7.44079 20.812 10.2167 21.3824 13.2399 20.755V20.7359C13.2209 20.7169 13.2018 20.6979 13.1828 20.6789C13.1448 20.6409 13.1258 20.6219 13.0878 20.5838C12.5744 20.0515 12.2132 19.424 12.0801 18.7015C11.928 17.922 12.0801 17.2185 12.5364 16.591C12.8406 16.1727 13.2589 15.8875 13.7722 15.7925C14.0765 15.7354 14.3617 15.6974 14.6659 15.6784C15.0652 15.6404 15.4454 15.5453 15.7877 15.3171C15.9398 15.2221 16.0919 15.089 16.225 14.9559C16.244 14.9369 16.263 14.9178 16.282 14.9178C16.7764 14.4615 17.3087 14.0813 17.9172 13.777C18.7918 13.3397 19.7234 13.1496 20.6741 13.0545C20.7312 13.0545 20.7502 13.0355 20.7692 12.9785C20.8642 12.5031 20.9213 12.0088 20.9403 11.5335C20.9403 11.2863 20.9403 11.0771 20.9213 10.868ZM17.5939 17.4466C17.4799 17.5797 17.3848 17.7128 17.3278 17.8839C17.3087 17.941 17.2897 17.998 17.2517 18.0551C17.0996 18.3973 16.9095 18.7015 16.6052 18.9297C16.225 19.2339 15.7877 19.367 15.2933 19.2339C14.7039 19.0818 14.3236 18.5684 14.3807 17.998C14.3997 17.8459 14.4187 17.6938 14.5328 17.5797C14.5898 17.5227 14.6469 17.5037 14.7039 17.5227C14.78 17.5417 14.856 17.5797 14.875 17.6748C14.894 17.7508 14.856 17.8269 14.78 17.8649C14.6469 17.941 14.6279 18.0551 14.6469 18.2072C14.6659 18.2832 14.6849 18.3403 14.7229 18.3973C14.837 18.5494 14.9701 18.6635 15.1602 18.7395C15.5025 18.8726 15.8257 18.8156 16.1299 18.6635C16.7764 18.3403 16.9855 17.6177 16.6052 16.9903C16.32 16.534 15.9208 16.2488 15.4264 16.0777C14.9511 15.9256 14.4948 15.9256 14.0194 16.1157C13.6201 16.2678 13.2589 16.515 12.9737 16.8382C12.8596 16.9713 12.7455 17.1044 12.6695 17.2565C12.3653 17.8459 12.3462 18.4543 12.5934 19.0628C12.8216 19.6522 13.2018 20.1275 13.7152 20.5078C13.7722 20.5648 13.8293 20.5648 13.9053 20.5458C15.7877 19.9564 17.3468 18.8916 18.6017 17.3896C19.039 16.8762 19.4002 16.3058 19.7044 15.6974C19.6854 15.7164 19.6474 15.7164 19.6284 15.7354C19.5713 15.7734 19.5143 15.7925 19.4573 15.8305C18.7918 16.2868 18.1453 16.8192 17.5939 17.4466ZM15.9208 15.7734L15.9018 15.7925C15.8827 15.8115 15.8827 15.8305 15.9208 15.8495C16.0919 15.9065 16.244 16.0016 16.3961 16.1157C16.4151 16.1347 16.4151 16.1347 16.4341 16.1537C16.4531 16.1727 16.4722 16.1917 16.4912 16.1917C16.5292 16.2108 16.5482 16.2298 16.5672 16.2298C16.5862 16.2298 16.6052 16.2108 16.6433 16.1727C16.6623 16.1537 16.6623 16.1537 16.6813 16.1347C17.3848 15.3742 18.2214 14.8228 19.1721 14.4045C19.5713 14.2334 20.0086 14.1003 20.446 14.0052C20.446 14.0052 20.446 14.0052 20.465 14.0052C20.503 14.0052 20.522 13.9862 20.541 13.9482C20.5981 13.739 20.6551 13.5109 20.7121 13.2827C20.0847 13.3587 19.4763 13.4918 18.8869 13.701C17.708 14.1193 16.7383 14.8608 15.9208 15.7734ZM16.8714 16.4389C17.2897 15.9636 17.7651 15.5453 18.2974 15.203C18.9249 14.7657 19.6094 14.4615 20.3509 14.2714L20.4079 14.2524C20.2938 14.5566 20.1798 14.8608 20.0467 15.146C20.0467 15.165 20.0277 15.165 20.0277 15.184C20.0277 15.184 20.0086 15.203 19.9896 15.203C19.0199 15.6023 18.2214 16.2488 17.4989 16.9713C17.4418 17.0283 17.3848 17.1044 17.3278 17.1614C17.2897 17.1995 17.2707 17.1994 17.2517 17.1424C17.1756 16.9333 17.0426 16.7621 16.9095 16.591C16.8904 16.572 16.8904 16.572 16.8714 16.553C16.8524 16.515 16.8334 16.4769 16.8714 16.4389Z" fill="#32A3DC"/>
<path fill-rule="evenodd" clip-rule="evenodd" d="M5.19721 9.02369C5.40635 9.13777 5.50142 9.28988 5.48241 9.51804C5.46339 9.7462 5.31129 9.87929 5.10214 9.95535C4.91201 10.0314 4.70286 10.0124 4.51273 9.95535C4.4747 9.93633 4.43667 9.93633 4.37963 9.91732C4.17048 9.86028 3.96134 9.80324 3.75219 9.78422C3.486 9.76521 3.21981 9.80324 2.97264 9.91732C2.70645 10.0504 2.45928 10.2025 2.25013 10.4117C1.88888 10.7729 1.54664 11.1342 1.18538 11.5144L1.09031 11.6095C1.09031 11.6095 1.09031 11.6095 1.0713 11.6285C1.05229 11.6475 1.05229 11.6666 1.01426 11.6666C0.995247 11.2483 0.995247 10.83 1.01426 10.3927C1.01426 10.3736 1.01426 10.3736 1.01426 10.3546C0.995247 10.2025 1.0713 10.1265 1.20439 10.0504C1.79381 9.72719 2.36421 9.40396 3.01067 9.19481C3.50502 9.0427 3.99936 8.90961 4.49371 8.87158C4.7599 8.8906 4.98806 8.90961 5.19721 9.02369ZM20.9213 10.868C20.9213 10.7919 20.9213 10.7159 20.8452 10.6779C20.7312 10.6018 20.6361 10.5448 20.522 10.5067C20.2178 10.3927 19.9326 10.4117 19.6664 10.5828C19.4763 10.7159 19.3051 10.849 19.134 11.0011C19.0199 11.1152 18.9059 11.2292 18.8108 11.3433C18.7538 11.4004 18.6777 11.4764 18.6207 11.5335C18.5256 11.6285 18.4115 11.7046 18.2784 11.7046C17.8411 11.7616 17.4608 11.6285 17.1186 11.3433C17.0616 11.2863 17.0045 11.2292 16.9665 11.1342C16.9285 11.0581 16.9665 11.0011 17.0045 10.944C17.0426 10.887 17.0996 10.906 17.1566 10.925C17.2137 10.944 17.2707 10.9821 17.3278 11.0201C17.632 11.2863 17.9932 11.3243 18.3735 11.2483C18.6777 11.1722 18.8488 10.9631 18.9819 10.6969C19.2291 10.2025 18.9439 9.55606 18.3925 9.42297C17.9552 9.30889 17.5369 9.40396 17.1376 9.57508C16.6813 9.78423 16.301 10.0884 15.9208 10.4117C15.2743 10.9631 14.6469 11.5335 14.0955 12.1799C13.373 13.0545 12.6505 13.9291 11.966 14.8418C11.0723 16.0016 10.0266 17.0283 8.77173 17.8269C8.1633 18.2072 7.51684 18.5304 6.81335 18.7205C6.22393 18.8726 5.6155 18.9297 4.98806 18.9297C4.98806 18.9297 4.98806 18.9297 4.96905 18.9297C4.95003 18.9297 4.93102 18.9297 4.89299 18.9487C7.44079 20.812 10.2167 21.3824 13.2399 20.755V20.7359C13.2209 20.7169 13.2018 20.6979 13.1828 20.6789C13.1448 20.6409 13.1258 20.6219 13.0878 20.5838C12.5744 20.0515 12.2132 19.424 12.0801 18.7015C11.928 17.922 12.0801 17.2185 12.5364 16.591C12.8406 16.1727 13.2589 15.8875 13.7722 15.7925C14.0765 15.7354 14.3617 15.6974 14.6659 15.6784C15.0652 15.6404 15.4454 15.5453 15.7877 15.3171C15.9398 15.2221 16.0919 15.089 16.225 14.9559C16.244 14.9369 16.263 14.9178 16.282 14.9178C16.7764 14.4615 17.3087 14.0813 17.9172 13.777C18.7918 13.3397 19.7234 13.1496 20.6741 13.0545C20.7312 13.0545 20.7502 13.0355 20.7692 12.9785C20.8642 12.5031 20.9213 12.0088 20.9403 11.5335C20.9403 11.2863 20.9403 11.0771 20.9213 10.868ZM17.5939 17.4466C17.4799 17.5797 17.3848 17.7128 17.3278 17.8839C17.3087 17.941 17.2897 17.998 17.2517 18.0551C17.0996 18.3973 16.9095 18.7015 16.6052 18.9297C16.225 19.2339 15.7877 19.367 15.2933 19.2339C14.7039 19.0818 14.3236 18.5684 14.3807 17.998C14.3997 17.8459 14.4187 17.6938 14.5328 17.5797C14.5898 17.5227 14.6469 17.5037 14.7039 17.5227C14.78 17.5417 14.856 17.5797 14.875 17.6748C14.894 17.7508 14.856 17.8269 14.78 17.8649C14.6469 17.941 14.6279 18.0551 14.6469 18.2072C14.6659 18.2832 14.6849 18.3403 14.7229 18.3973C14.837 18.5494 14.9701 18.6635 15.1602 18.7395C15.5025 18.8726 15.8257 18.8156 16.1299 18.6635C16.7764 18.3403 16.9855 17.6177 16.6052 16.9903C16.32 16.534 15.9208 16.2488 15.4264 16.0777C14.9511 15.9256 14.4948 15.9256 14.0194 16.1157C13.6201 16.2678 13.2589 16.515 12.9737 16.8382C12.8596 16.9713 12.7455 17.1044 12.6695 17.2565C12.3653 17.8459 12.3462 18.4543 12.5934 19.0628C12.8216 19.6522 13.2018 20.1275 13.7152 20.5078C13.7722 20.5648 13.8293 20.5648 13.9053 20.5458C15.7877 19.9564 17.3468 18.8916 18.6017 17.3896C19.039 16.8762 19.4002 16.3058 19.7044 15.6974C19.6854 15.7164 19.6474 15.7164 19.6284 15.7354C19.5713 15.7734 19.5143 15.7925 19.4573 15.8305C18.7918 16.2868 18.1453 16.8192 17.5939 17.4466ZM15.9208 15.7734L15.9018 15.7925C15.8827 15.8115 15.8827 15.8305 15.9208 15.8495C16.0919 15.9065 16.244 16.0016 16.3961 16.1157C16.4151 16.1347 16.4151 16.1347 16.4341 16.1537C16.4531 16.1727 16.4722 16.1917 16.4912 16.1917C16.5292 16.2108 16.5482 16.2298 16.5672 16.2298C16.5862 16.2298 16.6052 16.2108 16.6433 16.1727C16.6623 16.1537 16.6623 16.1537 16.6813 16.1347C17.3848 15.3742 18.2214 14.8228 19.1721 14.4045C19.5713 14.2334 20.0086 14.1003 20.446 14.0052C20.446 14.0052 20.446 14.0052 20.465 14.0052C20.503 14.0052 20.522 13.9862 20.541 13.9482C20.5981 13.739 20.6551 13.5109 20.7121 13.2827C20.0847 13.3587 19.4763 13.4918 18.8869 13.701C17.708 14.1193 16.7383 14.8608 15.9208 15.7734ZM16.8714 16.4389C17.2897 15.9636 17.7651 15.5453 18.2974 15.203C18.9249 14.7657 19.6094 14.4615 20.3509 14.2714L20.4079 14.2524C20.2938 14.5566 20.1798 14.8608 20.0467 15.146C20.0467 15.165 20.0277 15.165 20.0277 15.184C20.0277 15.184 20.0086 15.203 19.9896 15.203C19.0199 15.6023 18.2214 16.2488 17.4989 16.9713C17.4418 17.0283 17.3848 17.1044 17.3278 17.1614C17.2897 17.1995 17.2707 17.1994 17.2517 17.1424C17.1756 16.9333 17.0426 16.7621 16.9095 16.591C16.8904 16.572 16.8904 16.572 16.8714 16.553C16.8524 16.515 16.8334 16.4769 16.8714 16.4389Z" fill="#9B9B9B"/>
<path d="M14.6281 5.04995C14.609 5.03094 14.59 5.04996 14.571 5.06897C14.495 5.12601 14.4189 5.20206 14.3429 5.2591C13.9816 5.63937 13.7344 6.07668 13.5633 6.57103C13.4112 6.95129 13.3352 7.36959 13.2401 7.76887C13.183 8.01605 13.05 8.14914 12.7838 8.20618C12.6887 8.22519 12.6126 8.22519 12.5176 8.22519C12.2514 8.20618 12.0042 8.13013 11.8141 7.93999C11.681 7.8069 11.7 7.65479 11.8141 7.5217C11.8521 7.48367 11.9091 7.44564 11.9662 7.42663C12.1183 7.36959 12.2704 7.35058 12.4225 7.35058C12.4605 7.35058 12.4795 7.33156 12.4986 7.29354C12.5366 7.16044 12.5746 7.00834 12.6126 6.87524C12.8598 6.00063 13.2211 5.16404 13.7534 4.4035C13.7915 4.34646 13.8105 4.28942 13.8295 4.23238C13.8675 4.04225 13.9246 3.8331 13.9626 3.64296C14.0386 3.31974 14.1147 2.9775 14.1908 2.63525C14.1717 2.63525 14.1717 2.65427 14.1527 2.65427C13.7534 3.03454 13.3352 3.39579 12.9359 3.77606C12.9169 3.79507 12.8978 3.81408 12.8788 3.85211C12.6697 4.27041 12.4605 4.6887 12.1753 5.06897C11.8141 5.5443 11.4148 5.98161 10.9965 6.41892C10.9395 6.47596 10.9395 6.49497 10.9775 6.55201C11.0916 6.70412 11.1486 6.87524 11.1296 7.06538C11.1296 7.25551 10.9585 7.3886 10.7683 7.35058C10.7113 7.33156 10.6543 7.31255 10.5972 7.29354C10.293 7.14143 10.1029 6.89425 10.0078 6.59004C9.95077 6.39991 9.98879 6.22879 10.1409 6.09569C10.236 6.00062 10.331 5.90556 10.4261 5.81049C10.7493 5.50628 11.0726 5.18305 11.3197 4.82179C11.5669 4.44153 11.7761 4.04225 11.8331 3.58592C11.8331 3.5479 11.8521 3.50987 11.8331 3.49086C11.7951 3.47184 11.7761 3.52888 11.757 3.5479C11.2247 4.21337 10.5782 4.76475 9.81767 5.18305C9.45642 5.3922 9.07615 5.58233 8.69588 5.75345C8.63884 5.77246 8.63884 5.79148 8.65786 5.84852C8.7149 5.9626 8.77194 6.09569 8.80996 6.22879C8.96207 6.57103 9.11418 6.93228 9.32332 7.25551C9.58951 7.65479 9.93175 7.99703 10.274 8.32026C10.312 8.35829 10.331 8.39631 10.312 8.43434C10.293 8.52941 10.255 8.62447 10.217 8.71954C10.0268 9.06178 9.45642 10.0695 9.26628 10.4117C9.26628 10.4307 9.24727 10.4307 9.24727 10.4498C9.24727 10.4688 9.24727 10.4878 9.26628 10.4878C9.38037 10.6779 9.47543 10.8871 9.55149 11.0962C9.5705 11.1152 9.5705 11.1533 9.58951 11.1723C9.60853 11.1533 9.60853 11.1342 9.62754 11.1152C9.91274 10.6399 10.5592 9.49909 10.8444 9.02375C10.8824 8.9477 10.9395 8.89066 11.0155 8.83362C11.0535 8.79559 11.0916 8.77658 11.1486 8.81461C11.1866 8.83362 11.2247 8.83362 11.2817 8.85263C11.7761 9.00474 12.2894 9.11882 12.8218 9.11882C13.2591 9.11882 13.6774 9.04277 14.1147 9.00474C14.1527 9.00474 14.1717 8.96671 14.1527 8.92869C14.1147 8.58645 14.0957 8.26322 14.0957 7.92098C14.0767 7.27452 14.1147 6.62807 14.2668 6.00062C14.3429 5.71542 14.4379 5.43022 14.533 5.14502C14.6281 5.107 14.6471 5.06897 14.6281 5.04995Z" fill="white"/>
</svg>
