<svg width="20" height="20" viewBox="0 0 20 20" fill="none" xmlns="http://www.w3.org/2000/svg">
<path d="M10 0.25C15.3841 0.25 19.75 4.61585 19.75 10C19.75 15.3842 15.3841 19.75 10 19.75C4.6158 19.75 0.25 15.3869 0.25 10C0.25 4.61312 4.6158 0.25 10 0.25Z" fill="#393939" stroke="#B0B0B0" stroke-width="0.5"/>
<path fill-rule="evenodd" clip-rule="evenodd" d="M13.6472 11.9018C13.6472 14.0571 11.9084 14.7273 10.6043 14.7273C10.2029 14.7273 9.79182 14.6551 9.39346 14.5852C9.01895 14.5194 8.6557 14.4556 8.32219 14.4556C7.76072 14.4556 7.43469 14.5643 7.18113 14.7092V11.0867H7.19924C7.76071 12.4089 8.77499 14.5462 10.7311 14.5462C11.7273 14.5462 12.4155 14.0028 12.4155 12.9342C12.4155 12.2486 11.8548 11.8211 10.9455 11.4208V9.09017C12.5857 9.67863 13.6472 10.405 13.6472 11.9018ZM10.0364 8.74672C8.81399 8.26202 8.21352 7.89018 8.21352 7.08396C8.21352 6.01533 9.02857 5.47197 9.95228 5.47197C11.202 5.47197 12.1801 6.5406 13.1944 8.4967H13.2125L13.0495 5.39953C12.8865 5.43576 12.6691 5.47197 12.4699 5.47197C12.1249 5.47197 11.8321 5.431 11.512 5.38621C11.1263 5.33225 10.701 5.27274 10.0972 5.27274C8.73877 5.27274 7 6.05157 7 8.09824C7 9.34798 7.54337 10.2174 9.60816 10.9056C9.75513 10.9583 9.898 11.0099 10.0364 11.0609V8.74672Z" fill="white"/>
<path d="M10.9091 4H10V5.45455H10.9091V4Z" fill="white"/>
<path d="M10.9091 14.5454H10V16H10.9091V14.5454Z" fill="white"/>
</svg>
