<svg width="20" height="20" viewBox="0 0 20 20" fill="none" xmlns="http://www.w3.org/2000/svg">
<path d="M10 0.25C15.3841 0.25 19.75 4.61585 19.75 10C19.75 15.3842 15.3841 19.75 10 19.75C4.6158 19.75 0.25 15.3869 0.25 10C0.25 4.61312 4.6158 0.25 10 0.25Z" fill="#393939" stroke="#B0B0B0" stroke-width="0.5"/>
<path d="M11.187 9.75306C11.1371 9.78301 11.0872 9.81296 11.0472 9.8429C10.638 10.1424 10.3884 10.6215 10.3884 11.1306L10.3984 16.99C10.628 16.6905 10.9175 16.2813 11.2469 15.8221C11.9955 14.774 12.9239 13.4065 13.6725 12.1088C14.3812 10.881 15.06 9.49353 15.5791 8.35559C15.8586 7.74668 16.0981 7.21764 16.2678 6.82834C16.2678 6.82834 16.2678 6.82834 16.2678 6.81836L11.187 9.75306Z" fill="white"/>
<path d="M16.0181 6.3893C15.6488 6.34937 15.1497 6.28948 14.5807 6.23957C13.303 6.11979 11.646 6 10.1487 6C8.73124 6 7.18403 6.1098 5.94626 6.21961C5.27747 6.2795 4.69851 6.33939 4.26929 6.3893L9.04068 9.14433L9.33016 9.31402C9.34014 9.31402 9.34014 9.324 9.35012 9.324C9.59967 9.46375 9.86918 9.53363 10.1487 9.53363C10.3683 9.53363 10.5879 9.48372 10.7875 9.40386C10.8374 9.3839 10.8973 9.35395 10.9472 9.324L16.0181 6.3893Z" fill="white"/>
<path d="M9.87939 11.1308C9.87939 10.5718 9.57993 10.0527 9.1008 9.76326L8.79136 9.58359L4 6.80859C4 6.81858 4.00998 6.81858 4.00998 6.82856C4.15971 7.16795 4.35935 7.62712 4.59892 8.14618C5.12796 9.31407 5.85665 10.8014 6.61528 12.119C7.31402 13.3368 8.18245 14.6145 8.90116 15.6327C9.29045 16.1817 9.63982 16.6608 9.89936 17.0002L9.87939 11.1308Z" fill="white"/>
</svg>
