<svg width="20" height="20" viewBox="0 0 20 20" fill="none" xmlns="http://www.w3.org/2000/svg">
<path d="M10 0.25C15.3841 0.25 19.75 4.61585 19.75 10C19.75 15.3842 15.3841 19.75 10 19.75C4.6158 19.75 0.25 15.3869 0.25 10C0.25 4.61312 4.6158 0.25 10 0.25Z" fill="#393939" stroke="#B0B0B0" stroke-width="0.5"/>
<path d="M9.881 8.70398C10.1329 9.14939 9.56959 9.28744 9.30527 9.31285C8.9047 9.35196 8.82178 9.12007 8.90003 8.82874C8.92569 8.72443 8.98268 8.63058 9.06324 8.55993C9.14382 8.48927 9.24408 8.44524 9.35042 8.43378C9.45521 8.42412 9.56058 8.44434 9.65442 8.49216C9.74829 8.53995 9.82681 8.61337 9.881 8.70398Z" fill="white"/>
<path d="M11.4534 7.87992C11.1607 10.1293 15.1072 9.66118 15.0321 11.4514C15.4213 10.9431 15.5887 9.56185 14.4427 8.85091C13.4216 8.21702 12.0911 8.56387 11.4534 7.87992Z" fill="white"/>
<path d="M13.7263 7.03155C13.7007 7.00778 13.6743 6.98441 13.6488 6.96103C13.6747 6.9848 13.7007 7.00974 13.7263 7.03155Z" fill="white"/>
<path d="M14.644 8.6713L14.6416 8.66779C14.606 8.60131 14.5654 8.53763 14.5202 8.47734C14.3871 8.29627 14.1963 8.16651 13.9795 8.10974C13.8352 8.07233 13.6876 8.04901 13.5388 8.04015C13.3882 8.02919 13.2344 8.02294 13.0791 8.01471C12.7677 7.9975 12.4488 7.96545 12.1374 7.87629C12.0596 7.85399 11.9817 7.82974 11.9066 7.80043C11.8676 7.78635 11.8314 7.77109 11.7929 7.75467C11.7544 7.73824 11.715 7.71948 11.6761 7.69952C11.5297 7.61895 11.394 7.52001 11.2724 7.40507C11.0326 7.18099 10.8442 6.9268 10.6554 6.68043C10.4774 6.43313 10.2864 6.19555 10.0832 5.96872C9.88268 5.74651 9.64566 5.56054 9.38247 5.4189C9.10997 5.28102 8.81398 5.1961 8.51011 5.16863C8.82536 5.13423 9.14425 5.1733 9.44204 5.2828C9.74253 5.39999 10.0172 5.57524 10.2506 5.79862C10.4029 5.94215 10.546 6.09537 10.6788 6.25732C11.6676 6.06178 12.4695 6.23541 13.0857 6.57251L13.0997 6.57955C13.2959 6.68641 13.4797 6.81468 13.6478 6.96201C13.6747 6.98547 13.7012 7.00893 13.7257 7.03279C13.8569 7.15393 13.9791 7.28463 14.0912 7.42384L14.0998 7.43518C14.4638 7.89818 14.6436 8.37957 14.644 8.6713Z" fill="white"/>
<path d="M14.6442 8.67215L14.6414 8.66663L14.6442 8.67215Z" fill="white"/>
<path d="M8.56013 5.4582C8.81239 5.49497 9.0697 5.59586 9.23553 5.78826C9.40137 5.98066 9.46248 6.23093 9.51035 6.46909C9.54928 6.65367 9.58005 6.84177 9.65245 7.01657C9.68748 7.10182 9.73886 7.1765 9.7817 7.25706C9.81712 7.32393 9.88173 7.38417 9.90664 7.45571C9.91111 7.46599 9.91277 7.47726 9.91146 7.48839C9.91017 7.49954 9.90596 7.51011 9.89925 7.51908C9.81128 7.61685 9.57382 7.50812 9.48428 7.46433C9.3295 7.38726 9.19087 7.28106 9.07593 7.15148C8.71662 6.75065 8.53094 6.17383 8.54223 5.64865C8.54473 5.58489 8.55071 5.52132 8.56013 5.4582Z" fill="white"/>
<path d="M12.7793 9.97886C12.2343 11.5067 14.7062 12.5317 13.7801 14.0849C14.7303 13.6907 15.1815 12.5 14.7872 11.5552C14.4423 10.7258 13.4224 10.4235 12.7793 9.97886Z" fill="white"/>
<path d="M9.51011 11.9761C9.65862 11.8637 9.821 11.771 9.9932 11.7004C10.1674 11.6304 10.3482 11.578 10.5328 11.544C10.8991 11.474 11.2615 11.4568 11.5659 11.3336C11.7163 11.2746 11.8547 11.1885 11.9742 11.0794C12.09 10.9715 12.1785 10.8374 12.2327 10.6884C12.2882 10.5311 12.3108 10.364 12.2989 10.1976C12.2852 10.0188 12.2449 9.84316 12.1794 9.67633C12.3151 9.81812 12.4139 9.99132 12.4671 10.1806C12.5202 10.3699 12.5261 10.5694 12.4842 10.7615C12.4366 10.9649 12.3338 11.151 12.1872 11.2992C12.0421 11.4428 11.8671 11.5523 11.6749 11.6199C11.4914 11.6845 11.3001 11.724 11.1062 11.7372C10.9193 11.7528 10.7387 11.7571 10.5612 11.7677C10.2023 11.7828 9.84781 11.8531 9.51011 11.9761Z" fill="white"/>
<path d="M12.9965 14.6621C12.9417 14.7059 12.8868 14.7524 12.8264 14.7931C12.7657 14.8333 12.7021 14.8688 12.6361 14.8995C12.4986 14.9668 12.3475 15.0012 12.1946 15C11.7804 14.9921 11.4877 14.6824 11.3164 14.3324C11.1996 14.0939 11.119 13.8362 10.9805 13.609C10.7823 13.284 10.4433 13.0224 10.0462 13.0709C9.88426 13.0912 9.73242 13.1643 9.6425 13.3055C9.40581 13.6743 9.74567 14.1909 10.1789 14.1177C10.2158 14.1121 10.2519 14.1021 10.2864 14.088C10.3208 14.0733 10.3529 14.0537 10.3817 14.0297C10.4423 13.9791 10.4879 13.9129 10.5137 13.8381C10.5422 13.7602 10.5485 13.6759 10.532 13.5945C10.5142 13.5095 10.4643 13.4348 10.3926 13.3861C10.4759 13.4252 10.5408 13.4953 10.5737 13.5816C10.6077 13.6704 10.6165 13.7669 10.599 13.8604C10.5819 13.9579 10.5392 14.0489 10.4752 14.124C10.4412 14.1626 10.4018 14.1962 10.3584 14.2237C10.3153 14.2509 10.2692 14.2728 10.221 14.289C10.1232 14.3226 10.0191 14.3334 9.91656 14.3207C9.77258 14.3001 9.63675 14.2409 9.52339 14.1494C9.38947 14.0431 9.28981 13.9038 9.16875 13.7842C9.02996 13.6379 8.86622 13.5178 8.68526 13.4295C8.56048 13.3744 8.42989 13.3338 8.29599 13.3083C8.22864 13.2942 8.16052 13.284 8.0924 13.2754C8.06125 13.2723 7.90865 13.2383 7.88725 13.2582C8.09779 13.0635 8.32734 12.8905 8.57238 12.742C8.82397 12.592 9.09411 12.4759 9.37585 12.3967C9.66796 12.3141 9.97347 12.2906 10.2747 12.3275C10.4297 12.3462 10.5816 12.3857 10.7262 12.4448C10.8778 12.5056 11.0177 12.5924 11.1397 12.7013C11.2604 12.8156 11.358 12.9522 11.427 13.1037C11.4893 13.2456 11.5357 13.3939 11.5655 13.546C11.6543 14.0008 11.6216 14.7059 12.2145 14.8099C12.2454 14.8159 12.2766 14.8204 12.3079 14.8232L12.4048 14.8255C12.4715 14.8208 12.5377 14.8112 12.603 14.797C12.7382 14.765 12.87 14.7199 12.9965 14.6621Z" fill="white"/>
<path d="M9.55155 14.1662L9.53606 14.154L9.55155 14.1662Z" fill="white"/>
<path d="M9.01968 7.74773C8.99809 7.83107 8.96038 7.90935 8.90873 7.97807C8.81258 8.10343 8.6853 8.2012 8.5397 8.26158C8.40871 8.31828 8.27002 8.35492 8.12823 8.37029C8.09746 8.37421 8.06555 8.37656 8.0348 8.3789C7.94499 8.38233 7.85864 8.41455 7.78838 8.47084C7.71812 8.52712 7.66764 8.60455 7.64435 8.69175C7.63368 8.73512 7.62575 8.77914 7.6206 8.82353C7.60658 8.93851 7.60426 9.05816 7.5918 9.20285C7.5613 9.44907 7.4904 9.6885 7.38198 9.91144C7.24107 10.2094 7.083 10.4495 7.11961 10.7929C7.14373 11.0158 7.2574 11.1652 7.40845 11.3192C7.68093 11.5992 8.29095 11.7244 8.15468 12.4142C8.07255 12.826 7.39288 13.2581 6.43759 13.409C6.53258 13.3946 6.31574 13.0274 6.30212 13.0039C6.19974 12.8428 6.08762 12.6911 6.00626 12.5162C5.84666 12.1772 5.77269 11.785 5.83809 11.4135C5.90699 11.0224 6.19507 10.7229 6.43447 10.4241C6.71941 10.0686 7.01839 9.6029 7.08456 9.14146C7.10013 9.02961 7.11103 8.88961 7.13595 8.7504C7.1597 8.59616 7.2078 8.44673 7.27842 8.30773C7.32663 8.21656 7.3901 8.13441 7.46606 8.06487C7.50566 8.02796 7.53178 7.97877 7.54025 7.92517C7.54872 7.87156 7.53904 7.81666 7.51278 7.76924L5.98991 5.01778L8.17727 7.72936C8.20219 7.76077 8.23366 7.78631 8.2695 7.80412C8.30533 7.82196 8.34464 7.83163 8.38461 7.8325C8.42457 7.83336 8.46425 7.82536 8.50081 7.80911C8.53737 7.79283 8.56991 7.76868 8.59613 7.73835C8.62385 7.7059 8.63956 7.66483 8.64062 7.62208C8.64168 7.57933 8.62804 7.53754 8.60199 7.50371C8.45912 7.32032 8.30808 7.13338 8.1617 6.94959L7.61126 6.26525L6.50648 4.8989L5 3L6.64818 4.7765L7.82419 6.08263L8.41085 6.73726C8.60547 6.95742 8.80012 7.17054 8.99476 7.40204L9.02668 7.44116L9.03369 7.50176C9.04318 7.58396 9.03843 7.66718 9.01968 7.74773Z" fill="white"/>
<path d="M9.52358 14.1479C9.41788 14.0659 9.32385 13.9697 9.24408 13.862C9.32966 13.9645 9.42311 14.0601 9.52358 14.1479Z" fill="white"/>
</svg>
