<svg width="20" height="20" viewBox="0 0 20 20" fill="none" xmlns="http://www.w3.org/2000/svg">
<path d="M10 0.25C15.3841 0.25 19.75 4.61585 19.75 10C19.75 15.3842 15.3841 19.75 10 19.75C4.6158 19.75 0.25 15.3869 0.25 10C0.25 4.61312 4.6158 0.25 10 0.25Z" fill="#393939" stroke="#B0B0B0" stroke-width="0.5"/>
<path d="M11.4082 8.88544V7.39655H14.811V5.12988H5.54713V7.39655H8.94991V8.88544C6.18602 9.01322 4.10547 9.56044 4.10547 10.216C4.10547 10.8716 6.18602 11.4188 8.94991 11.5466V16.3104H11.411V11.5466C14.1721 11.4188 16.2471 10.8716 16.2471 10.216C16.2444 9.56044 14.1694 9.01322 11.4082 8.88544ZM11.411 11.1438C11.3416 11.1466 10.986 11.1688 10.1916 11.1688C9.55547 11.1688 9.11102 11.1521 8.95269 11.1438V11.1466C6.51102 11.0382 4.68602 10.6132 4.68602 10.1049C4.68602 9.59655 6.50825 9.17155 8.95269 9.06322V10.7188C9.1138 10.7299 9.56936 10.7577 10.2027 10.7577C10.961 10.7577 11.3416 10.7271 11.4138 10.7188V9.05766C13.8527 9.166 15.6721 9.591 15.6721 10.0993C15.6666 10.6077 13.8471 11.0327 11.411 11.1438Z" fill="white"/>
</svg>
