<svg width="20" height="20" viewBox="0 0 20 20" fill="none" xmlns="http://www.w3.org/2000/svg">
<path d="M10 0.25C15.3841 0.25 19.75 4.61585 19.75 10C19.75 15.3842 15.3841 19.75 10 19.75C4.6158 19.75 0.25 15.3869 0.25 10C0.25 4.61312 4.6158 0.25 10 0.25Z" fill="#393939" stroke="#B0B0B0" stroke-width="0.5"/>
<path d="M16.3077 4.19836L15.7585 4.74751C17.0689 6.18048 17.7956 8.05195 17.7956 9.99371C17.7956 11.9355 17.0689 13.8069 15.7585 15.2399L16.3077 15.7891C17.765 14.2084 18.574 12.1372 18.574 9.9873C18.574 7.83739 17.765 5.76621 16.3077 4.18555V4.19836Z" fill="#B0B0B0"/>
<path d="M4.75923 4.24515C6.1922 2.93479 8.06367 2.20813 10.0054 2.20813C11.9472 2.20813 13.8187 2.93479 15.2516 4.24515L15.8008 3.696C14.2201 2.23874 12.1489 1.42969 9.99902 1.42969C7.84911 1.42969 5.77793 2.23874 4.19727 3.696L4.75923 4.24515Z" fill="#B0B0B0"/>
<path d="M4.2449 15.245C2.9361 13.8124 2.21039 11.9421 2.21039 10.0016C2.21039 8.06111 2.9361 6.19078 4.2449 4.75813L3.69576 4.20898C2.2385 5.78965 1.42944 7.86083 1.42944 10.0107C1.42944 12.1607 2.2385 14.2318 3.69576 15.8125L4.2449 15.245Z" fill="#B0B0B0"/>
<path d="M15.2442 15.752C13.8112 17.0623 11.9397 17.789 9.99799 17.789C8.05622 17.789 6.18476 17.0623 4.75179 15.752L4.20264 16.3011C5.7833 17.7584 7.85448 18.5674 10.0044 18.5674C12.1543 18.5674 14.2255 17.7584 15.8061 16.3011L15.2442 15.752Z" fill="#B0B0B0"/>
<path d="M13.4669 8.16772C13.357 7.02183 12.3686 6.63742 11.1183 6.52027V4.94238H10.1518V6.49098C9.89739 6.49098 9.63746 6.49098 9.37936 6.49098V4.94238H8.42018V6.53125H6.45972V7.56548C6.45972 7.56548 7.17361 7.55267 7.16263 7.56548C7.29135 7.55132 7.42054 7.58768 7.52298 7.6669C7.62542 7.74612 7.6931 7.86202 7.71178 7.99016V12.3394C7.70903 12.3846 7.69724 12.4288 7.67712 12.4694C7.657 12.5099 7.62895 12.546 7.59462 12.5756C7.56095 12.6056 7.52153 12.6286 7.47875 12.6431C7.43597 12.6576 7.39071 12.6632 7.34568 12.6598C7.35849 12.6707 6.64277 12.6598 6.64277 12.6598L6.45972 13.8148H8.40187V15.4293H9.36838V13.8386H10.1408V15.422H11.1092V13.8258C12.742 13.7269 13.8805 13.3242 14.0233 11.7958C14.1386 10.5657 13.5602 10.0165 12.6358 9.79503C13.1978 9.51862 13.5456 9.00608 13.4669 8.16772ZM12.1123 11.6054C12.1123 12.8062 10.0548 12.6689 9.39949 12.6689V10.5382C10.0548 10.54 12.1123 10.3515 12.1123 11.6054ZM11.6638 8.60337C11.6638 9.70167 9.94681 9.56805 9.40132 9.56805V7.63138C9.94681 7.63138 11.6638 7.45931 11.6638 8.60337Z" fill="#FEFEFD"/>
</svg>
