<svg width="20" height="20" viewBox="0 0 20 20" fill="none" xmlns="http://www.w3.org/2000/svg">
<path d="M10 0.25C15.3841 0.25 19.75 4.61585 19.75 10C19.75 15.3842 15.3841 19.75 10 19.75C4.6158 19.75 0.25 15.3869 0.25 10C0.25 4.61312 4.6158 0.25 10 0.25Z" fill="#393939" stroke="#B0B0B0" stroke-width="0.5"/>
<path d="M10.0009 5.19144H10.0009C9.81412 5.19144 9.66269 5.34286 9.66269 5.52966V14.5467C9.66269 14.7335 9.81412 14.885 10.0009 14.885C10.1877 14.885 10.3391 14.7335 10.3391 14.5467V5.52966C10.3391 5.34286 10.1877 5.19144 10.0009 5.19144Z" fill="white"/>
<path d="M10.0009 5.19144H10.0009C10.1877 5.19144 10.3391 5.34286 10.3391 5.52966V14.5467C10.3391 14.7335 10.1877 14.885 10.0009 14.885H10.0009C9.81412 14.885 9.66269 14.7335 9.66269 14.5467V5.52966C9.66269 5.34286 9.81412 5.19144 10.0009 5.19144Z" stroke="white" stroke-width="0.2"/>
<path d="M14.925 10.0227V10.0227C14.925 9.83591 14.7735 9.68448 14.5867 9.68448H5.56965C5.38285 9.68448 5.23142 9.83591 5.23142 10.0227C5.23142 10.2095 5.38285 10.3609 5.56965 10.3609H14.5867C14.7735 10.3609 14.925 10.2095 14.925 10.0227Z" fill="white"/>
<path d="M14.925 10.0227V10.0227C14.925 10.2095 14.7735 10.3609 14.5867 10.3609H5.56965C5.38285 10.3609 5.23142 10.2095 5.23142 10.0227V10.0227C5.23142 9.83591 5.38285 9.68448 5.56965 9.68448H14.5867C14.7735 9.68448 14.925 9.83591 14.925 10.0227Z" stroke="white" stroke-width="0.2"/>
<path d="M13.5097 13.4827L13.5097 13.4827C13.6418 13.3506 13.6418 13.1365 13.5097 13.0044L7.1337 6.62833C7.00161 6.49624 6.78746 6.49624 6.65538 6.62833C6.52329 6.76041 6.52329 6.97456 6.65538 7.10665L13.0314 13.4827C13.1635 13.6148 13.3777 13.6148 13.5097 13.4827Z" fill="white"/>
<path d="M13.5097 13.4827L13.5097 13.4827C13.3777 13.6148 13.1635 13.6148 13.0314 13.4827L6.65538 7.10665C6.52329 6.97456 6.52329 6.76041 6.65538 6.62833L6.65538 6.62833C6.78746 6.49624 7.00161 6.49624 7.1337 6.62833L13.5097 13.0044C13.6418 13.1365 13.6418 13.3506 13.5097 13.4827Z" stroke="white" stroke-width="0.2"/>
<path d="M5.23917 14.7608L5.23917 14.7608C5.37126 14.8929 5.58541 14.8929 5.71749 14.7608L14.7609 5.71748C14.8929 5.5854 14.8929 5.37125 14.7608 5.23916C14.6288 5.10708 14.4146 5.10708 14.2825 5.23916L5.23917 14.2825C5.10709 14.4146 5.10709 14.6288 5.23917 14.7608Z" fill="white"/>
<path d="M5.23917 14.7608L5.23917 14.7608C5.10709 14.6288 5.10709 14.4146 5.23917 14.2825L14.2825 5.23916C14.4146 5.10708 14.6288 5.10708 14.7608 5.23916L14.7609 5.23916C14.8929 5.37125 14.8929 5.5854 14.7609 5.71748L5.71749 14.7608C5.58541 14.8929 5.37126 14.8929 5.23917 14.7608Z" stroke="white" stroke-width="0.2"/>
</svg>
