<svg width="259" height="55" viewBox="0 0 259 55" fill="none" xmlns="http://www.w3.org/2000/svg">
<path d="M0 0.75862L15.3114 54.2414H40.2018L55.5886 0.75862H43.3697L29.2651 51.2069H26.2481L12.2189 0.75862H0Z" fill="white"/>
<path d="M97.0986 11.3793V0.75862H60.8943V11.3793H72.9624V43.6207H60.8943V54.2414H97.0986V43.6207H85.0305V11.3793H97.0986Z" fill="white"/>
<path d="M149.221 39.5241C149.221 28.3724 134.211 24.1241 124.406 20.7862C115.882 17.9034 114.6 16.9931 114.6 14.5655C114.6 11.8345 117.994 10.6207 123.425 10.6207C129.987 10.6207 134.965 12.4414 134.965 18.9655H147.033C147.033 8.34483 139.717 0 123.425 0C109.698 0 102.532 5.0069 102.532 14.1103C102.532 24.5793 111.659 27.6138 122.897 31.4069C130.666 34.0621 137.152 35.8069 137.152 39.6759C137.152 42.5586 134.588 44.3793 126.819 44.3793C116.26 44.3793 112.187 41.8 112.187 33.6069H100.119C100.119 47.1103 107.284 55 126.442 55C142.809 55 149.221 48.7034 149.221 39.5241Z" fill="white"/>
<path d="M152.966 27.4621C152.966 43.0897 163.224 55 180.12 55C196.94 55 207.197 43.0897 207.197 27.4621C207.197 11.9103 196.94 0 180.12 0C163.224 0 152.966 11.9103 152.966 27.4621ZM165.035 27.4621C165.035 17.2207 170.088 10.6207 180.12 10.6207C190.151 10.6207 195.129 17.2207 195.129 27.4621C195.129 37.7793 190.151 44.3793 180.12 44.3793C170.088 44.3793 165.035 37.7793 165.035 27.4621Z" fill="white"/>
<path d="M214.046 54.2414H226.114V35.4276H246.932V54.2414H259V37.1724C259 33 256.737 30.7241 252.589 30.7241H244.82V27.6897C251.231 26.931 258.321 24.5034 258.321 15.7034C258.321 3.71724 247.309 0.75862 234.638 0.75862H214.046V54.2414ZM226.114 24.8069V11.3793H234.638C241.803 11.3793 246.253 11.3793 246.253 18.131C246.253 24.8069 241.803 24.8069 234.638 24.8069H226.114Z" fill="white"/>
</svg>
