<svg width="286" height="46" viewBox="0 0 286 46" fill="none" xmlns="http://www.w3.org/2000/svg">
<path d="M37.9252 0.789701V8.55508H19.8408C15.5907 8.55508 12.4899 9.69576 10.5384 11.9771C8.6302 14.2146 7.67611 17.8999 7.67611 23.0329C7.67611 28.1221 8.6302 31.8073 10.5384 34.0887C12.4466 36.3262 15.5474 37.4449 19.8408 37.4449H27.1266C29.295 37.4449 30.8562 36.8746 31.8103 35.7339C32.7644 34.5494 33.2414 33.0358 33.2414 31.1931C33.2414 29.3944 32.7861 28.0124 31.8754 27.0472C31.008 26.0382 29.6636 25.5336 27.8421 25.5336H18.0844V18.7554H28.6228C32.5692 18.7554 35.4966 19.896 37.4048 22.1774C39.3129 24.4149 40.267 27.464 40.267 31.3248C40.267 33.2551 40.0068 35.0758 39.4864 36.7868C39.0094 38.454 38.2071 39.9237 37.0795 41.196C35.9953 42.4244 34.5858 43.4115 32.8511 44.1574C31.1598 44.8593 29.0781 45.2103 26.6062 45.2103H19.8408C13.4223 45.2103 8.50009 43.3896 5.07404 39.7482C1.69134 36.063 0 30.4912 0 23.0329C0 15.5308 1.69134 9.95899 5.07404 6.3176C8.50009 2.63233 13.4223 0.789701 19.8408 0.789701H37.9252Z" fill="black"/>
<path d="M51.5337 45.2103H43.077L58.4942 5.72532C59.3182 3.61946 60.4675 2.14974 61.942 1.31616C63.4598 0.438721 65.3897 0 67.7316 0C70.0301 0 71.9166 0.438721 73.3911 1.31616C74.909 2.14974 76.0582 3.61946 76.8388 5.72532L91.6706 45.2103H83.1488L69.8132 9.47639C69.4229 8.46733 68.7074 7.9628 67.6665 7.9628C66.6257 7.9628 65.8884 8.46733 65.4548 9.47639L51.5337 45.2103Z" fill="black"/>
<path d="M105.733 45.2103H98.1224V9.93705C98.1224 6.95374 98.9898 4.56271 100.725 2.76395C102.459 0.921317 105.105 0 108.661 0C111.783 0 114.255 0.767765 116.077 2.30329C117.898 3.79495 119.112 5.94468 119.72 8.75251L125.9 35.9313C126.29 37.5985 127.266 38.4321 128.827 38.4321C130.345 38.4321 131.321 37.5985 131.754 35.9313L137.934 8.75251C138.541 5.94468 139.69 3.79495 141.382 2.30329C143.117 0.767765 145.567 0 148.733 0C152.289 0 154.934 0.921317 156.669 2.76395C158.404 4.56271 159.271 6.95374 159.271 9.93705V45.2103H151.66V10.3319C151.66 9.45446 151.378 8.77444 150.814 8.29185C150.294 7.76538 149.535 7.50215 148.538 7.50215C147.627 7.50215 146.933 7.72151 146.456 8.16023C145.979 8.55508 145.654 9.12542 145.48 9.87125L139.17 37.0501C138.476 39.9895 137.327 42.227 135.722 43.7625C134.118 45.2542 131.798 46 128.762 46C125.683 46 123.297 45.2322 121.606 43.6967C119.958 42.1612 118.809 39.9456 118.158 37.0501L111.913 9.87125C111.74 9.12542 111.393 8.55508 110.873 8.16023C110.396 7.72151 109.723 7.50215 108.856 7.50215C107.859 7.50215 107.078 7.76538 106.514 8.29185C105.994 8.77444 105.733 9.45446 105.733 10.3319V45.2103Z" fill="black"/>
<path d="M177.392 45.2103H169.781V9.93705C169.781 6.95374 170.648 4.56271 172.383 2.76395C174.118 0.921317 176.763 0 180.319 0C183.442 0 185.914 0.767765 187.735 2.30329C189.557 3.79495 190.771 5.94468 191.378 8.75251L197.558 35.9313C197.948 37.5985 198.924 38.4321 200.485 38.4321C202.003 38.4321 202.979 37.5985 203.413 35.9313L209.593 8.75251C210.2 5.94468 211.349 3.79495 213.04 2.30329C214.775 0.767765 217.225 0 220.391 0C223.947 0 226.593 0.921317 228.328 2.76395C230.062 4.56271 230.93 6.95374 230.93 9.93705V45.2103H223.319V10.3319C223.319 9.45446 223.037 8.77444 222.473 8.29185C221.952 7.76538 221.194 7.50215 220.196 7.50215C219.285 7.50215 218.591 7.72151 218.114 8.16023C217.637 8.55508 217.312 9.12542 217.139 9.87125L210.829 37.0501C210.135 39.9895 208.986 42.227 207.381 43.7625C205.776 45.2542 203.456 46 200.42 46C197.341 46 194.956 45.2322 193.265 43.6967C191.617 42.1612 190.467 39.9456 189.817 37.0501L183.572 9.87125C183.398 9.12542 183.052 8.55508 182.531 8.16023C182.054 7.72151 181.382 7.50215 180.515 7.50215C179.517 7.50215 178.736 7.76538 178.173 8.29185C177.652 8.77444 177.392 9.45446 177.392 10.3319V45.2103Z" fill="black"/>
<path d="M245.863 45.2103H237.406L252.824 5.72532C253.648 3.61946 254.797 2.14974 256.271 1.31616C257.789 0.438721 259.719 0 262.061 0C264.359 0 266.246 0.438721 267.72 1.31616C269.238 2.14974 270.388 3.61946 271.168 5.72532L286 45.2103H277.478L264.143 9.47639C263.752 8.46733 263.037 7.9628 261.996 7.9628C260.955 7.9628 260.218 8.46733 259.784 9.47639L245.863 45.2103Z" fill="black"/>
</svg>
